<!--?xml version="1.0" standalone="no"?-->
              <svg id="sw-js-blob-svg" viewBox="0 0 100 100" xmlns="http://www.w3.org/2000/svg" version="1.1">
                    <defs> 
                        <linearGradient id="sw-gradient" x1="0" x2="1" y1="1" y2="0">
                            <stop id="stop1" stop-color="rgba(67, 154, 151, 1)" offset="0%"></stop>
                            <stop id="stop2" stop-color="rgba(151, 222, 206, 1)" offset="100%"></stop>
                        </linearGradient>
                    </defs>
                <path fill="url(#sw-gradient)" d="M22.6,-39.4C29.2,-35.4,34.2,-29,38.2,-22.1C42.3,-15.1,45.3,-7.6,45.6,0.2C45.9,7.9,43.4,15.8,38.8,21.8C34.2,27.7,27.5,31.9,20.7,35.9C13.8,39.9,6.9,43.8,-0.4,44.5C-7.8,45.3,-15.6,42.9,-22.8,39.1C-30,35.3,-36.6,30.1,-40.4,23.4C-44.2,16.6,-45.3,8.3,-44.4,0.5C-43.6,-7.4,-40.9,-14.7,-36.4,-20.3C-32,-25.9,-25.6,-29.7,-19.3,-33.8C-12.9,-37.9,-6.4,-42.3,0.8,-43.7C8,-45,16.1,-43.4,22.6,-39.4Z" width="100%" height="100%" transform="translate(50 50)" stroke-width="0" style="transition: all 0.3s ease 0s;" stroke="url(#sw-gradient)"></path>
              </svg>