<svg width="484" height="299" viewBox="0 0 484 299" fill="none" xmlns="http://www.w3.org/2000/svg">
<path opacity="0.3" d="M251.94 231.07L182.84 191.18L272.95 139.16L342.05 179.05L251.94 231.07Z" fill="black"/>
<path d="M251.94 229.92L182.84 190.02L272.95 138L342.05 177.9L251.94 229.92Z" fill="white"/>
<path d="M300.07 194.83L243.49 162.16L245.92 160.76L302.5 193.42L300.07 194.83Z" fill="#F4EFE9"/>
<path d="M270.82 184.18L238.09 165.28L240.52 163.88L273.25 182.77L270.82 184.18Z" fill="#F4EFE9"/>
<path d="M264.67 153.55L261.1 155.61V158.52L262.78 159.48L259.66 161.28L256.69 159.57V154.55L262.83 151L264.66 153.55H264.67Z" fill="#EB5C44"/>
<path d="M262.83 151H271.53L277.67 154.55L273.27 155.6L269.71 153.55H264.67L262.83 151Z" fill="#439A97"/>
<path d="M262.78 159.48L264.67 160.57H269.7L273.27 158.51V155.6L277.67 154.55V159.57L271.53 163.12H262.83L259.66 161.28L262.78 159.48Z" fill="#FFC654"/>
<path d="M270.79 156.2L268.67 154.98H265.68L263.57 156.2V157.92L265.68 159.14H268.67L270.79 157.92V156.2Z" fill="#FFC654"/>
<path d="M294.2 170.6V167.68L290.63 165.62H288.26V163.07H292.46L298.61 166.62V171.63L294.2 170.58V170.6Z" fill="#CCA7CF"/>
<path d="M298.61 171.65L292.46 175.2H283.77L285.59 172.66L290.63 172.65L294.2 170.6L298.61 171.65Z" fill="#DDE65C"/>
<path d="M288.26 165.63H285.6L282.03 167.69V170.6L285.59 172.66L283.77 175.2L277.62 171.65V166.63L283.77 163.09H288.26V165.63Z" fill="#439A97"/>
<path d="M286.62 171.23H289.62L291.73 170.01V168.28L289.62 167.06H286.62L284.51 168.28V170.01L286.62 171.23Z" fill="#439A97"/>
<path d="M311.57 177.71H306.53L302.97 179.77V181.14H298.56V178.71L304.71 175.16H313.4L311.58 177.7L311.57 177.71Z" fill="#FFC654"/>
<path d="M313.39 175.17L319.55 178.72V183.74L315.13 182.68V179.77L311.57 177.71L313.39 175.17Z" fill="#EB5C44"/>
<path d="M302.96 181.15V182.69L306.53 184.74H311.57L315.13 182.68L319.55 183.74L313.4 187.29H304.7L298.55 183.74V181.14L300.86 179.81L302.96 181.15Z" fill="#FFC654"/>
<path d="M312.66 182.09V180.36L310.54 179.14H307.55L305.43 180.36V182.09L307.55 183.31H310.54L312.66 182.09Z" fill="#EB5C44"/>
<path d="M223.79 189.87V188.83L222.51 188.1H220.72L219.44 188.83V189.87L220.71 190.61H222.51L223.79 189.87Z" fill="#FA5C52"/>
<path d="M235.13 195.25V194.21L233.86 193.48H232.06L230.78 194.21V195.25L232.06 195.99H233.86L235.13 195.25Z" fill="#FA5C52"/>
<path d="M254.07 199.71L254.06 198.67L252.79 197.93H250.99L249.72 198.68V199.71L250.99 200.45H252.79L254.07 199.71Z" fill="#FA5C52"/>
<path d="M263.18 199.38V198.35L261.9 197.61H260.1L258.83 198.35V199.38L260.1 200.12H261.9L263.18 199.38Z" fill="#FA5C52"/>
<path d="M280.13 202.14V200.85L278.54 199.94H276.31L274.73 200.85V202.14L276.31 203.06H278.55L280.13 202.14Z" fill="#FA5C52"/>
<path d="M197.47 189.56V188.98L221.8 189.07L233.11 194.44L252 198.9L261.11 198.67L277.56 201.22L277.3 201.78L260.92 199.24L251.73 199.46L232.53 194.92L221.44 189.65L197.47 189.56Z" fill="#FA5C52"/>
<path d="M197.98 189.23L232.98 169.02L232.3 168.63L196.62 189.23L253.19 221.9L253.87 221.5L197.98 189.23Z" fill="#428AA8"/>
<path d="M253.91 219.42L236.74 209.51L236.94 209.4L254.12 219.31L253.91 219.42Z" fill="#428AA8"/>
<path d="M244.75 209.22L241.76 207.49L237.71 209.84L240.7 211.56L244.75 209.22Z" fill="#FFEC7A"/>
<path d="M252.87 209.22L249.87 207.49L241.76 212.18L244.75 213.9L252.87 209.22Z" fill="#FFC654"/>
<path d="M260.98 209.22L257.98 207.49L245.82 214.52L248.81 216.25L260.98 209.22Z" fill="#FDB053"/>
<path d="M272.46 207.28L269.46 205.55L249.87 216.86L252.87 218.59L272.46 207.28Z" fill="#E95156"/>
<path opacity="0.3" d="M189.94 125.97L148.53 149.88L202.89 181.26L244.3 157.35L189.94 125.97Z" fill="black"/>
<path d="M223.32 96.8L242.27 156.37L239.73 158.88L208.74 141.55L219.3 95.76L223.32 96.8Z" fill="#785B56"/>
<path d="M205.43 177.14L177.9 161.24L213.58 140.63L241.12 156.53L236.8 160.12L216.67 171.87L205.43 177.14Z" fill="#D8D1C7"/>
<path d="M202.98 180.68L149.46 149.78L168.84 64.86L222.37 95.76L219.39 112.03L210.12 153.53L202.98 180.68Z" fill="white"/>
<path d="M171.13 75.6L168.84 85.62L176.83 90.23L179.12 80.21L171.13 75.6Z" fill="#C8DFE8"/>
<path d="M180.5 81.0099L178.21 91.02L186.2 95.6299L188.49 85.6199L180.5 81.0099Z" fill="#C8DFE8"/>
<path d="M189.86 86.41L187.57 96.42L195.56 101.04L197.85 91.02L189.86 86.41Z" fill="#C8DFE8"/>
<path d="M199.22 91.8199L196.93 101.83L204.92 106.44L207.21 96.4299L199.22 91.8199Z" fill="#C8DFE8"/>
<path d="M208.58 97.22L206.29 107.24L214.29 111.85L216.57 101.84L208.58 97.22Z" fill="#FCA48F"/>
<path d="M168.39 87.58L166.11 97.59L174.1 102.21L176.38 92.19L168.39 87.58Z" fill="#C8DFE8"/>
<path d="M177.76 92.98L175.47 103L183.46 107.61L185.74 97.6L177.76 92.98Z" fill="#C8DFE8"/>
<path d="M187.12 98.39L184.83 108.4L192.82 113.02L195.11 103L187.12 98.39Z" fill="#C8DFE8"/>
<path d="M196.48 103.8L194.19 113.81L202.19 118.42L204.47 108.41L196.48 103.8Z" fill="#C8DFE8"/>
<path d="M205.85 109.2L203.56 119.22L211.55 123.83L213.84 113.81L205.85 109.2Z" fill="#FCA48F"/>
<path d="M165.66 99.56L163.37 109.57L171.36 114.19L173.65 104.17L165.66 99.56Z" fill="#C8DFE8"/>
<path d="M175.02 104.96L172.73 114.97L180.72 119.59L183.01 109.57L175.02 104.96Z" fill="#C8DFE8"/>
<path d="M184.38 110.37L182.09 120.38L190.09 124.99L192.37 114.98L184.38 110.37Z" fill="#C8DFE8"/>
<path d="M193.74 115.77L191.46 125.79L199.45 130.4L201.73 120.38L193.74 115.77Z" fill="#C8DFE8"/>
<path d="M203.1 121.18L200.82 131.19L208.81 135.81L211.1 125.8L203.1 121.18Z" fill="#FCA48F"/>
<path d="M162.91 111.53L160.63 121.55L168.62 126.16L170.91 116.15L162.91 111.53Z" fill="#C8DFE8"/>
<path d="M172.28 116.94L169.99 126.96L177.99 131.56L180.27 121.55L172.28 116.94Z" fill="#C8DFE8"/>
<path d="M181.65 122.35L179.36 132.36L187.35 136.98L189.64 126.96L181.65 122.35Z" fill="#C8DFE8"/>
<path d="M191 127.75L188.72 137.76L196.71 142.38L199 132.36L191 127.75Z" fill="#C8DFE8"/>
<path d="M200.37 133.16L198.08 143.17L206.07 147.79L208.36 137.77L200.37 133.16Z" fill="#FCA48F"/>
<path d="M160.18 123.51L157.89 133.53L165.88 138.14L168.17 128.13L160.18 123.51Z" fill="#C8DFE8"/>
<path d="M169.54 128.92L167.26 138.93L175.25 143.54L177.53 133.53L169.54 128.92Z" fill="#C8DFE8"/>
<path d="M178.9 134.32L176.62 144.34L184.61 148.95L186.9 138.94L178.9 134.32Z" fill="#C8DFE8"/>
<path d="M185.26 133.2C184.65 133 184.04 132.79 183.43 132.6L181.77 132.09L181.02 130.34C180.77 129.74 180.5 129.15 180.23 128.55L180.43 126.79C180.48 126.23 180.53 125.67 180.58 125.11C181.13 124.6 181.67 124.1 182.2 123.58C182.69 123.09 183.2 122.61 183.7 122.12C184.87 122.71 186.04 123.29 187.22 123.85C187.55 124.9 187.89 125.96 188.27 127C188.18 125.83 188.04 124.66 187.89 123.5L187.87 123.37L187.71 123.26C186.45 122.4 185.18 121.57 183.89 120.76L183.51 120.52L183.12 120.84C182.47 121.38 181.83 121.94 181.19 122.48C180.54 123.03 179.92 123.6 179.28 124.16L179.07 124.36L179.03 124.66C178.96 125.31 178.88 125.96 178.82 126.62L178.64 128.58L178.62 128.8L178.71 128.99C179.02 129.65 179.34 130.3 179.67 130.95L180.66 132.9L180.82 133.21L181.1 133.27L183.14 133.68C183.82 133.81 184.5 133.93 185.19 134.06L185.41 134.1L185.53 134C186.06 133.57 186.58 133.13 187.1 132.69C187.62 132.25 188.13 131.79 188.64 131.33C188.03 131.64 187.43 131.96 186.83 132.3C186.3 132.6 185.78 132.9 185.25 133.2H185.26Z" fill="#FA5C52"/>
<path d="M182.55 125.64L183.96 131.18L191.02 128.85L190.04 126.68L184.37 130.15L182.55 125.64Z" fill="#FA5C52"/>
<path d="M200.48 116.3C199.87 116.1 199.26 115.89 198.65 115.7L196.99 115.18L196.24 113.43C195.99 112.83 195.72 112.24 195.45 111.65L195.65 109.89C195.7 109.33 195.75 108.77 195.8 108.22C196.34 107.71 196.89 107.21 197.42 106.68C197.92 106.19 198.42 105.71 198.92 105.22C200.08 105.81 201.26 106.39 202.44 106.95C202.77 108 203.11 109.06 203.49 110.11C203.4 108.94 203.26 107.77 203.11 106.61L203.09 106.48L202.93 106.37C201.67 105.51 200.4 104.68 199.11 103.87L198.74 103.64L198.35 103.96C197.7 104.5 197.06 105.06 196.42 105.61C195.78 106.16 195.15 106.73 194.52 107.29L194.3 107.49L194.26 107.8C194.19 108.45 194.11 109.1 194.05 109.76L193.87 111.72L193.85 111.94L193.94 112.13C194.25 112.79 194.57 113.44 194.9 114.09L195.88 116.04L196.04 116.35L196.32 116.41L198.36 116.82C199.04 116.95 199.72 117.07 200.4 117.2L200.62 117.24L200.75 117.14C201.28 116.71 201.8 116.26 202.32 115.83C202.84 115.38 203.35 114.93 203.86 114.47C203.25 114.78 202.65 115.1 202.05 115.44C201.52 115.74 201 116.04 200.47 116.34L200.48 116.3Z" fill="#FA5C52"/>
<path d="M197.77 108.73L199.18 114.28L206.24 111.95L205.26 109.78L199.59 113.25L197.77 108.73Z" fill="#FA5C52"/>
<path d="M172.11 99.61C171.5 99.41 170.89 99.2 170.28 99.01L168.62 98.5L167.87 96.75C167.62 96.15 167.35 95.56 167.08 94.96L167.28 93.2C167.34 92.64 167.38 92.08 167.43 91.53C167.98 91.02 168.52 90.52 169.05 90C169.55 89.51 170.06 89.03 170.55 88.54C171.71 89.13 172.89 89.71 174.07 90.27C174.4 91.33 174.74 92.38 175.12 93.43C175.03 92.25 174.89 91.09 174.74 89.93V89.8L174.56 89.69C173.31 88.83 172.03 88 170.75 87.19L170.37 86.95L169.98 87.27C169.32 87.81 168.7 88.37 168.05 88.91C167.4 89.46 166.78 90.03 166.15 90.59L165.93 90.79L165.89 91.09C165.82 91.74 165.74 92.4 165.68 93.05L165.5 95.01L165.48 95.23L165.57 95.42C165.88 96.08 166.2 96.73 166.53 97.38L167.52 99.33L167.67 99.64L167.95 99.7L169.99 100.11C170.67 100.24 171.35 100.36 172.04 100.48L172.26 100.52L172.39 100.42C172.92 99.99 173.44 99.55 173.96 99.11C174.48 98.67 174.99 98.21 175.5 97.75C174.89 98.06 174.28 98.39 173.69 98.71C173.16 99.01 172.63 99.31 172.11 99.62V99.61Z" fill="#FA5C52"/>
<path d="M169.4 92.04L170.81 97.58L177.87 95.25L176.89 93.08L171.22 96.55L169.4 92.04Z" fill="#FA5C52"/>
<path d="M224.27 94.66L222.36 95.76L202.97 180.69L243.56 157.26L224.26 94.67L224.27 94.66ZM223.31 99.05L241.11 156.53L205.43 177.14L223.32 99.05H223.31Z" fill="#A39C95"/>
<path d="M224.27 87L170.75 56.1L168.84 57.2L169.12 59.68L210.99 84.12L223.99 92.18L224.27 87Z" fill="#FDD293"/>
<path d="M222.37 88.1L168.84 57.2V64.86L222.37 95.76V88.1Z" fill="#FDB053"/>
<path d="M224.27 94.66L222.37 95.76V88.1L224.27 87V94.66Z" fill="#FF8E1C"/>
<path opacity="0.3" d="M147.8 286.55L78.7 246.66L168.81 194.64L237.91 234.53L147.8 286.55Z" fill="black"/>
<path d="M147.8 285.4L78.7 245.51L168.81 193.48L237.91 233.38L147.8 285.4Z" fill="white"/>
<path d="M150.58 279.78L88.74 244.08L89.13 243.86L150.96 279.56L150.58 279.78Z" fill="#FDB053"/>
<path d="M110.36 247.2L99.59 240.98L91.87 245.44L102.64 251.66L110.36 247.2Z" fill="#FFEC7A"/>
<path d="M132.69 251.18L121.92 244.96L106.48 253.87L117.25 260.09L132.69 251.18Z" fill="#FFC654"/>
<path d="M155.01 255.15L144.24 248.93L121.08 262.31L131.85 268.52L155.01 255.15Z" fill="#E95156"/>
<path d="M158.04 270.27L147.27 264.05L135.69 270.74L146.46 276.96L158.04 270.27Z" fill="#FFC654"/>
<path d="M200.64 232.82H185.06V229.14L194.18 223.87L200.64 232.82Z" fill="#FBE979"/>
<path d="M194.18 223.87H207.1L216.22 229.14V236.59L200.64 232.82L194.18 223.87Z" fill="#EB5C44"/>
<path d="M200.64 232.82L216.22 236.59L207.1 241.86H194.19L185.06 236.59V232.82H200.64Z" fill="#FFC654"/>
<path d="M182.27 256.28L127.68 224.77L130.1 223.36L184.69 254.88L182.27 256.28Z" fill="#F4EFE9"/>
<path d="M153.85 246.12L122.27 227.89L124.7 226.49L156.28 244.72L153.85 246.12Z" fill="#F4EFE9"/>
<path d="M163.44 236.53L135.37 220.32L168.16 201.39L196.23 217.6L163.44 236.53Z" fill="#BAF3FF"/>
<path d="M167.29 205.28L165.59 204.3L164.74 204.61L163.76 205.18L163.22 205.67L164.91 206.65L165.77 206.34L166.75 205.77L167.29 205.28Z" fill="#FBE979"/>
<path d="M163.27 207.6L161.58 206.62L160.72 206.94L159.74 207.5L159.2 208L160.89 208.97L161.74 208.66L162.73 208.09L163.27 207.6Z" fill="#FDB053"/>
<path d="M159.25 209.92L157.56 208.94L156.7 209.26L155.72 209.82L155.18 210.31L156.87 211.29L157.72 210.98L158.71 210.41L159.25 209.92Z" fill="#EB5C44"/>
<path d="M135.37 220.32L165.02 214.46L167.64 217.01L180.68 215.08L181.07 219.86L196.23 217.6L190.63 220.83L165.65 233.42L135.37 220.32Z" fill="#EB5C44"/>
<path d="M135.37 220.32L156.58 213.64L161.21 220.27L176.76 221.25L178.77 224.21L190.63 220.83L183.34 225.05L162.96 234.45L135.37 220.32Z" fill="#FDB053"/>
<path d="M135.37 220.32L155.24 218.38L153.15 223.88L165.26 224.16L167.36 227.95L183.34 225.05L163.44 236.53L135.37 220.32Z" fill="#FBE979"/>
<path d="M195.72 248.52L173.53 235.71L167.77 239.03L189.96 251.85L195.72 248.52Z" fill="#F4EFE9"/>
<path opacity="0.3" d="M165.64 229L120.37 202.86L179.8 168.55L225.08 194.69L165.64 229Z" fill="black"/>
<path d="M225.08 184.04L223.72 181.96L217.85 183.14L208.14 198.48L211.83 201.9L225.08 184.04Z" fill="#685750"/>
<path d="M223.72 181.96L178.45 155.82L166.56 171.85L211.83 197.99L223.72 181.96Z" fill="#836E69"/>
<path d="M165.6 227.23L120.33 201.09V199.9L166.24 225.33L165.6 227.23Z" fill="#A39C95"/>
<path d="M165.6 226.04L120.33 199.9L121.51 197.86L150.93 212.73L167.7 223.72L165.6 226.04Z" fill="#D8D1C7"/>
<path d="M211.83 197.99L166.78 224L165.6 226.04V227.22L166.78 227.9L211.83 201.89L213.01 199.85V198.66L211.83 197.98V197.99Z" fill="#A39685"/>
<path d="M166.78 224L121.51 197.86L166.56 171.85L211.83 197.99L166.78 224Z" fill="#E6E1DD"/>
<path d="M204 197L201.56 198.41L188.38 190.8L190.82 189.39L204 197Z" fill="#A39C95"/>
<path d="M188.14 209.09L181.88 204.01L192.85 204.91V206.37L188.14 209.09Z" fill="#5E4439"/>
<path d="M188.14 209.09L181.88 205.48V204.01L185.78 204.85L188.14 207.62V209.09Z" fill="#736656"/>
<path d="M188.14 207.62L181.88 204.01L186.59 201.29L192.85 204.91L188.14 207.62Z" fill="#A39685"/>
<path d="M194.64 205.34L188.38 200.26L199.35 201.15V202.62L194.64 205.34Z" fill="#5E4439"/>
<path d="M194.64 205.34L188.38 201.73V200.26L192.28 201.1L194.64 203.88V205.34Z" fill="#736656"/>
<path d="M194.64 203.88L188.38 200.26L193.08 197.54L199.35 201.15L194.64 203.88Z" fill="#A39685"/>
<path d="M186 200.36L179.74 195.27L190.71 196.17V197.64L186 200.36Z" fill="#5E4439"/>
<path d="M186 200.36L179.74 196.74V195.27L183.64 196.11L186 198.89V200.36Z" fill="#736656"/>
<path d="M186 198.89L179.74 195.27L184.45 192.56L190.71 196.17L186 198.89Z" fill="#A39685"/>
<path d="M177.36 195.37L171.1 190.29L182.07 191.19V192.65L177.36 195.37Z" fill="#5E4439"/>
<path d="M177.36 195.37L171.1 191.75V190.29L175 191.13L177.36 193.9V195.37Z" fill="#736656"/>
<path d="M177.36 193.9L171.1 190.29L175.81 187.57L182.07 191.19L177.36 193.9Z" fill="#A39685"/>
<path d="M168.73 190.39L162.47 185.3L173.44 186.2V187.66L168.73 190.39Z" fill="#5E4439"/>
<path d="M168.73 190.39L162.47 186.77V185.3L166.37 186.14L168.73 188.92V190.39Z" fill="#736656"/>
<path d="M168.73 188.92L162.47 185.3L167.17 182.59L173.44 186.2L168.73 188.92Z" fill="#A39685"/>
<path d="M160.03 215.35L153.77 210.27L164.74 211.17V212.63L160.03 215.35Z" fill="#5E4439"/>
<path d="M160.03 215.35L153.77 211.74V210.27L157.66 211.11L160.03 213.88V215.35Z" fill="#736656"/>
<path d="M160.03 213.88L153.77 210.27L158.47 207.55L164.74 211.17L160.03 213.88Z" fill="#A39685"/>
<path d="M151.39 210.37L145.13 205.28L156.1 206.18V207.64L151.39 210.37Z" fill="#D1D1D1"/>
<path d="M151.39 210.37L145.13 206.75V205.28L149.03 206.12L151.39 208.9V210.37Z" fill="#F4EFE9"/>
<path d="M151.39 208.9L145.13 205.28L149.84 202.57L156.1 206.18L151.39 208.9Z" fill="white"/>
<path d="M142.75 205.38L136.49 200.3L147.46 201.2V202.66L142.75 205.38Z" fill="#D1D1D1"/>
<path d="M142.75 205.38L136.49 201.77V200.3L140.39 201.14L142.75 203.91V205.38Z" fill="#F4EFE9"/>
<path d="M142.75 203.91L136.49 200.3L141.2 197.58L147.46 201.2L142.75 203.91Z" fill="white"/>
<path d="M157.88 206.62L151.62 201.54L162.59 202.43V203.9L157.88 206.62Z" fill="#D1D1D1"/>
<path d="M157.88 206.62L151.62 203V201.54L155.52 202.37L157.88 205.15V206.62Z" fill="#F4EFE9"/>
<path d="M157.88 205.15L151.62 201.54L156.33 198.82L162.59 202.43L157.88 205.15Z" fill="white"/>
<path d="M149.25 201.63L142.99 196.55L153.96 197.45V198.91L149.25 201.63Z" fill="#D1D1D1"/>
<path d="M149.25 201.63L142.99 198.02V196.55L146.89 197.39L149.25 200.16V201.63Z" fill="#F4EFE9"/>
<path d="M149.25 200.16L142.99 196.55L147.69 193.83L153.96 197.45L149.25 200.16Z" fill="white"/>
<path d="M164.38 202.87L158.12 197.79L169.08 198.68V200.15L164.38 202.87Z" fill="#D1D1D1"/>
<path d="M164.38 202.87L158.12 199.25V197.79L162.02 198.63L164.38 201.4V202.87Z" fill="#F4EFE9"/>
<path d="M164.38 201.4L158.12 197.79L162.82 195.06L169.08 198.68L164.38 201.4Z" fill="white"/>
<path d="M155.74 197.88L149.48 192.8L160.45 193.7V195.16L155.74 197.88Z" fill="#D1D1D1"/>
<path d="M155.74 197.88L149.48 194.27V192.8L153.38 193.64L155.74 196.41V197.88Z" fill="#F4EFE9"/>
<path d="M155.74 196.41L149.48 192.8L154.19 190.08L160.45 193.7L155.74 196.41Z" fill="white"/>
<path d="M170.87 199.12L164.61 194.04L175.58 194.93V196.4L170.87 199.12Z" fill="#D1D1D1"/>
<path d="M170.87 199.12L164.61 195.5V194.04L168.51 194.88L170.87 197.65V199.12Z" fill="#F4EFE9"/>
<path d="M170.87 197.65L164.61 194.04L169.32 191.32L175.58 194.93L170.87 197.65Z" fill="white"/>
<path d="M166.52 211.61L160.26 206.52L171.23 207.42V208.89L166.52 211.61Z" fill="#D1D1D1"/>
<path d="M166.52 211.61L160.26 207.99V206.52L164.16 207.36L166.52 210.14V211.61Z" fill="#F4EFE9"/>
<path d="M166.52 210.14L160.26 206.52L164.97 203.8L171.23 207.42L166.52 210.14Z" fill="white"/>
<path d="M173.01 207.85L166.75 202.77L177.72 203.67V205.14L173.01 207.85Z" fill="#D1D1D1"/>
<path d="M173.01 207.85L166.75 204.24V202.77L170.65 203.61L173.01 206.39V207.85Z" fill="#F4EFE9"/>
<path d="M173.01 206.39L166.75 202.77L171.46 200.05L177.72 203.67L173.01 206.39Z" fill="white"/>
<path d="M179.51 204.1L173.25 199.02L184.21 199.92V201.38L179.51 204.1Z" fill="#D1D1D1"/>
<path d="M179.51 204.1L173.25 200.49V199.02L177.14 199.86L179.51 202.64V204.1Z" fill="#F4EFE9"/>
<path d="M179.51 202.64L173.25 199.02L177.96 196.31L184.21 199.92L179.51 202.64Z" fill="white"/>
<path d="M162.23 194.13L155.97 189.05L166.94 189.95V191.41L162.23 194.13Z" fill="#D1D1D1"/>
<path d="M162.23 194.13L155.97 190.52V189.05L159.87 189.89L162.23 192.67V194.13Z" fill="#F4EFE9"/>
<path d="M162.23 192.67L155.97 189.05L160.68 186.33L166.94 189.95L162.23 192.67Z" fill="white"/>
<path d="M140.61 196.65L134.35 191.56L145.32 192.46V193.93L140.61 196.65Z" fill="#5E4439"/>
<path d="M140.61 196.65L134.35 193.03V191.56L138.25 192.41L140.61 195.18V196.65Z" fill="#736656"/>
<path d="M140.61 195.18L134.35 191.56L139.06 188.85L145.32 192.46L140.61 195.18Z" fill="#A39685"/>
<path d="M147.1 192.9L140.84 187.81L151.81 188.71V190.18L147.1 192.9Z" fill="#5E4439"/>
<path d="M147.1 192.9L140.84 189.28V187.81L144.74 188.65L147.1 191.43V192.9Z" fill="#736656"/>
<path d="M147.1 191.43L140.84 187.81L145.55 185.09L151.81 188.71L147.1 191.43Z" fill="#A39685"/>
<path d="M153.6 189.15L147.34 184.07L158.31 184.96V186.43L153.6 189.15Z" fill="#991F16"/>
<path d="M153.6 189.15L147.34 185.53V184.07L151.24 184.91L153.6 187.68V189.15Z" fill="#C84030"/>
<path d="M153.6 187.68L147.34 184.07L152.05 181.35L158.31 184.96L153.6 187.68Z" fill="#FA5C52"/>
<path d="M160.09 185.4L153.83 180.32L164.8 181.21V182.68L160.09 185.4Z" fill="#991F16"/>
<path d="M160.09 185.4L153.83 181.78V180.32L157.73 181.15L160.09 183.93V185.4Z" fill="#C84030"/>
<path d="M160.09 183.93L153.83 180.32L158.54 177.6L164.8 181.21L160.09 183.93Z" fill="#FA5C52"/>
<path d="M134.12 200.4L127.86 195.31L138.83 196.21V197.68L134.12 200.4Z" fill="#5E4439"/>
<path d="M134.12 200.4L127.86 196.78V195.31L131.75 196.15L134.12 198.93V200.4Z" fill="#736656"/>
<path d="M134.12 198.93L127.86 195.31L132.56 192.59L138.83 196.21L134.12 198.93Z" fill="#A39685"/>
<path d="M181.65 212.84L175.39 207.76L186.36 208.65V210.12L181.65 212.84Z" fill="#5E4439"/>
<path d="M181.65 212.84L175.39 209.22V207.76L179.29 208.6L181.65 211.37V212.84Z" fill="#736656"/>
<path d="M181.65 211.37L175.39 207.76L180.1 205.04L186.36 208.65L181.65 211.37Z" fill="#A39685"/>
<path d="M168.66 220.34L162.4 215.26L179.86 212.41V213.87L168.66 220.34Z" fill="#5E4439"/>
<path d="M168.66 220.34L162.4 216.72V215.26L167.22 217.14L168.66 218.87V220.34Z" fill="#736656"/>
<path d="M168.66 218.87L162.4 215.26L173.6 208.79L179.86 212.41L168.66 218.87Z" fill="#A39685"/>
<path d="M218.79 183.75L218.59 184.02L178.89 161.11L172.05 170.32L171.69 170.11L178.74 160.61L218.79 183.75Z" fill="#403531"/>
<path d="M218.59 184.02L218.36 184.33L179.04 161.63L172.43 170.54L172.05 170.32L178.89 161.11L218.59 184.02Z" fill="#685750"/>
<path d="M218.36 184.33L211.75 193.25L172.43 170.54L179.04 161.63L218.36 184.33Z" fill="#BFAD97"/>
<path d="M186.6 185.82L186.2 186.04L166.72 174.79L162.72 177.11L162.33 176.88L166.73 174.34L186.6 185.82Z" fill="#A39685"/>
<path d="M186.2 186.04L185.72 186.32L166.72 175.36L163.21 177.38L162.72 177.11L166.72 174.79L186.2 186.04Z" fill="#685750"/>
<path d="M185.72 186.32L182.21 188.35L163.21 177.38L166.72 175.36L185.72 186.32Z" fill="#BFAD97"/>
<path opacity="0.3" d="M383.97 222.61L377.63 226.27V231.63L383.97 235.29H392.77L399.1 231.63V226.27L392.77 222.61H383.97ZM398.42 231.24L392.59 234.61H384.16L378.32 231.24V226.66L384.16 223.29H392.59L398.43 226.66V231.24H398.42Z" fill="black"/>
<path opacity="0.3" d="M408.58 232.68H414.73V225.21H408.58L407.19 223.27L411.6 220.72L402.61 215.52L398.32 217.99L394.59 217.1V213.57H382.15V217.1L378.41 217.99L374.12 215.52L365.13 220.71L369.54 223.26L368.15 225.2H362V232.66H368.14L369.53 234.6L365.12 237.15L374.11 242.34L378.4 239.87L382.14 240.76V244.29H394.59V240.76L398.32 239.87L402.6 242.34L411.6 237.15L407.19 234.6L408.58 232.65V232.68ZM410.25 237.17L402.6 241.58L398.43 239.17L393.91 240.25V243.64H382.82V240.25L378.43 239.2L378.3 239.17L374.12 241.58L366.48 237.17L370.53 234.83L368.5 232.01H362.68V225.89H368.51L370.53 223.06L366.48 220.72L374.12 216.31L378.3 218.72L382.82 217.64V214.26H393.91V217.64L398.43 218.72L402.61 216.31L410.25 220.72L406.2 223.06L408.24 225.89H414.05V232.01H408.23L406.2 234.84L410.25 237.18V237.17Z" fill="black"/>
<path d="M365.81 211.81L371.64 213.66L370.03 223.17L365.81 220.73V211.81Z" fill="#D66B24"/>
<path d="M406.7 214.26L407.67 212.58L410.92 211.82L410.93 220.73L406.7 223.17V214.26Z" fill="#FDBD6F"/>
<path d="M368.32 223.44H362.34V232.35H368.32V223.44Z" fill="#FDB053"/>
<path d="M368.32 223.44L370.03 225.82L371.16 230.23L370.04 234.73L368.33 232.35L368.32 223.44Z" fill="#D66B24"/>
<path d="M392.67 214.04L400.16 217.47L398.99 226.6L392.67 222.95L391.79 219.27L392.67 214.04Z" fill="#D66B24"/>
<path d="M377.65 217.01L384.06 214.04L385.66 217.59L384.07 222.95L380.49 225.01L377.31 222.98L377.65 217.01Z" fill="#FDBD6F"/>
<path d="M408.41 223.44L410.61 222.48L414.39 223.44V232.35H408.41V223.44Z" fill="#FDB053"/>
<path d="M406.7 225.82L408.41 223.44L408.4 232.35L406.7 234.73V225.82Z" fill="#FDBD6F"/>
<path d="M370.03 225.82L365.81 228.26L374.12 233.06L378.35 230.62L382.48 231.6V235.06H394.25V231.6L398.37 230.61L402.6 233.05L410.92 228.25L406.69 225.81L408.39 223.43H414.38V216.64H408.39L406.69 214.26L410.91 211.81L402.6 207.01L398.36 209.45L394.24 208.46V205H382.48V208.46L378.35 209.45L374.12 207.01L365.81 211.81L370.04 214.26L368.34 216.64H362.35V223.43H368.33L370.04 225.81L370.03 225.82ZM377.98 222.53V217.56L384.06 214.05H392.67L398.76 217.56V222.53L392.67 226.05H384.06L377.98 222.53Z" fill="#EF8F2D"/>
<path d="M402.61 233.06L410.93 228.26V237.17L402.61 241.97V233.06Z" fill="#FDBD6F"/>
<path d="M394.25 235.07H382.48V243.98H394.25V235.07Z" fill="#FDBD6F"/>
<path d="M365.81 228.26L374.12 233.06V241.98L365.81 237.17V228.26Z" fill="#D66B24"/>
<path d="M398.38 230.62L402.61 233.06V241.97L398.38 239.53V230.62Z" fill="#D66B24"/>
<path d="M378.36 230.62L382.49 231.61V240.52L378.36 239.53V230.62Z" fill="#FDB053"/>
<path d="M392.67 214.04H384.06V222.95H392.67V214.04Z" fill="#E09D38"/>
<path d="M394.25 231.61L398.38 230.62V239.53L394.25 240.52V231.61Z" fill="#FDB053"/>
<path d="M374.12 233.06L378.36 230.62V239.53L374.12 241.98V233.06Z" fill="#FDBD6F"/>
<path opacity="0.3" d="M329.59 203.5L325.09 206.1V209.91L329.59 212.51H335.83L340.32 209.91V206.1L335.83 203.5H329.59ZM339.85 209.62L335.7 212.02H329.72L325.57 209.62V206.37L329.72 203.97H335.7L339.85 206.37V209.62Z" fill="black"/>
<path opacity="0.3" d="M347.08 210.65H351.44V205.35H347.08L346.09 203.98L349.22 202.17L342.83 198.48L339.79 200.24L337.14 199.6V197.1H328.3V199.6L325.65 200.24L322.6 198.48L316.21 202.17L319.35 203.98L318.36 205.36H314V210.66H318.36L319.35 212.04L316.22 213.85L322.61 217.54L325.66 215.79L328.31 216.42V218.93H337.15V216.42L339.8 215.79L342.84 217.54L349.23 213.85L346.1 212.04L347.09 210.66L347.08 210.65ZM348.26 213.84L342.83 216.97L339.87 215.26L336.66 216.03V218.43H328.78V216.03L325.66 215.29L325.57 215.27L322.6 216.98L317.18 213.85L320.05 212.19L318.61 210.18H314.48V205.84H318.62L320.05 203.83L317.18 202.17L322.6 199.04L325.57 200.75L328.78 199.98V197.58H336.66V199.98L339.87 200.75L342.84 199.04L348.27 202.17L345.4 203.83L346.84 205.83H350.97V210.17H346.84L345.4 212.18L348.27 213.84H348.26Z" fill="black"/>
<path d="M316.7 195.83L320.83 197.14L319.69 203.89L316.7 202.16V195.83Z" fill="#D66B24"/>
<path d="M345.73 197.57L346.42 196.38L348.74 195.83V202.16L345.73 203.89V197.57Z" fill="#FDBD6F"/>
<path d="M318.48 204.08H314.24V210.41H318.48V204.08Z" fill="#FDB053"/>
<path d="M318.48 204.08L319.69 205.77L320.5 208.9L319.7 212.1L318.48 210.41V204.08Z" fill="#D66B24"/>
<path d="M335.77 197.41L341.09 199.85L340.26 206.33L335.77 203.74L335.15 201.13L335.77 197.41Z" fill="#D66B24"/>
<path d="M325.11 199.52L329.66 197.41L330.79 199.94L329.66 203.74L327.12 205.2L324.87 203.76L325.11 199.52Z" fill="#FDBD6F"/>
<path d="M346.95 204.08L348.52 203.41L351.19 204.08V210.41H346.95V204.08Z" fill="#FDB053"/>
<path d="M345.74 205.78L346.95 204.08L346.94 210.41L345.74 212.1V205.78Z" fill="#FDBD6F"/>
<path d="M319.69 205.77L316.69 207.51L322.59 210.92L325.6 209.19L328.53 209.89V212.34H336.89V209.89L339.82 209.19L342.82 210.92L348.73 207.51L345.73 205.78L346.94 204.08H351.18V199.26H346.94L345.72 197.57L348.72 195.83L342.81 192.42L339.81 194.15L336.88 193.45V191H328.52V193.45L325.59 194.15L322.58 192.42L316.68 195.83L319.68 197.57L318.47 199.26H314.22V204.08H318.46L319.68 205.77H319.69ZM325.33 203.43V199.9L329.65 197.41H335.76L340.08 199.9V203.43L335.76 205.93H329.65L325.33 203.43Z" fill="#EF8F2D"/>
<path d="M342.83 210.92L348.74 207.51V213.84L342.83 217.25V210.92Z" fill="#FDBD6F"/>
<path d="M336.9 212.34H328.54V218.67H336.9V212.34Z" fill="#FDBD6F"/>
<path d="M316.7 207.51L322.6 210.92V217.25L316.7 213.84V207.51Z" fill="#D66B24"/>
<path d="M339.82 209.19L342.83 210.92V217.25L339.82 215.51V209.19Z" fill="#D66B24"/>
<path d="M325.61 209.19L328.54 209.89V216.21L325.61 215.51V209.19Z" fill="#FDB053"/>
<path d="M335.77 197.41H329.66V203.74H335.77V197.41Z" fill="#E09D38"/>
<path d="M336.89 209.89L339.82 209.19V215.51L336.89 216.21V209.89Z" fill="#FDB053"/>
<path d="M322.6 210.92L325.61 209.19V215.51L322.6 217.25V210.92Z" fill="#FDBD6F"/>
<path d="M308.26 224.56L311.25 218.84L302.33 201.27L279.03 187.76L247.63 183.1L215.67 188.37L193.58 201.12L184.25 219.69L187.24 224.28L308.26 224.56Z" fill="#A39C95"/>
<path d="M299.89 239.62L277.96 252.28L248 256.92L218.04 252.28L196.1 239.62L188.07 222.32L196.1 205.03L218.03 192.36L247.99 187.73L277.95 192.36L299.89 205.03L307.92 222.32L299.89 239.62Z" fill="white"/>
<path d="M277.05 207.35L255.1 220.02L251.76 218.1L273.71 205.43L277.06 205.53L277.05 207.35Z" fill="#403531"/>
<path d="M277.06 204.4V205.53L255.12 218.2L251.78 216.28L273.73 203.6L275.68 203.61L277.06 204.4Z" fill="#685750"/>
<path d="M240.16 224.2V220.45L244.75 217.8H251.24L255.83 220.45V224.2L251.24 226.85H244.75L240.16 224.2Z" fill="#403531"/>
<path d="M240.16 220.61V216.86L244.75 214.21H251.24L255.83 216.86V220.61L251.24 223.26H244.75L240.16 220.61Z" fill="#685750"/>
<path d="M246.86 243.4L245.24 242.46L245.21 226.82H250.74L250.77 242.46L249.15 243.4H246.86Z" fill="#403531"/>
<path d="M246.87 241.57L245.25 240.64L245.22 225.01H250.76L250.79 240.64L249.17 241.57H246.87Z" fill="#685750"/>
<path d="M218.19 241.16L218.18 239.54L209.49 241.3L209.5 242.92L212.32 244.55L218.19 241.16Z" fill="#8A1C14"/>
<path d="M286.49 201.72L286.48 200.1L277.79 201.86L277.8 203.48L280.62 205.11L286.49 201.72Z" fill="#8A1C14"/>
<path d="M277.79 239.54L277.8 241.16L283.67 244.55L286.49 242.93L286.48 241.3L277.79 239.54Z" fill="#8A1C14"/>
<path d="M209.49 200.1L209.5 201.72L215.37 205.11L218.18 203.49V201.86L209.49 200.1Z" fill="#0A0808"/>
<path d="M300.44 221.17H292.14V223.47H300.44V221.17Z" fill="#8A1C14"/>
<path d="M203.84 221.17H195.54V223.47H203.84V221.17Z" fill="#0A0808"/>
<path d="M249.98 247.81H246V252.61H249.98V247.81Z" fill="#8A1C14"/>
<path d="M249.99 192.04H246V196.84H249.99V192.04Z" fill="#0A0808"/>
<path d="M218.18 239.54L215.36 237.91L209.49 241.3L212.31 242.93L218.18 239.54Z" fill="#C84030"/>
<path d="M286.48 200.1L283.67 198.47L277.79 201.86L280.61 203.49L286.48 200.1Z" fill="#C84030"/>
<path d="M280.61 237.91L277.79 239.54L283.66 242.93L286.48 241.3L280.61 237.91Z" fill="#C84030"/>
<path d="M212.31 198.47L209.49 200.1L215.36 203.49L218.18 201.86L212.31 198.47Z" fill="#574943"/>
<path d="M292.14 219.55L292.13 221.85H300.43L300.44 219.55H292.14Z" fill="#C84030"/>
<path d="M203.83 219.55H195.53V221.85H203.83V219.55Z" fill="#574943"/>
<path d="M249.98 246.19H245.99V250.98H249.98V246.19Z" fill="#C84030"/>
<path d="M249.98 190.42H245.99V195.21H249.98V190.42Z" fill="#574943"/>
<path d="M280.99 252.62L305.15 238.68L313.99 219.63L305.15 200.58L280.99 186.63L248 181.53L215 186.63L190.85 200.57L182.01 219.62L190.85 238.67L215.01 252.62L248 257.72L280.99 252.62ZM277.96 249.59L248 254.22L218.04 249.59L196.1 236.92L188.07 219.62L196.1 202.33L218.03 189.67L247.99 185.03L277.95 189.67L299.89 202.33L307.92 219.62L299.89 236.92L277.96 249.59Z" fill="#E6E1DD"/>
<path d="M305.14 252.61V238.68L280.99 252.62V266.55L305.14 252.61Z" fill="#A39C95"/>
<path d="M313.99 233.55V219.63L305.14 238.68V252.61L313.99 233.55Z" fill="#87817C"/>
<path d="M215.01 266.55L215 252.63L190.84 238.68V252.61L215.01 266.55Z" fill="#D6D2CE"/>
<path d="M247.99 271.66L248 257.73L215 252.63L215.01 266.55L247.99 271.66Z" fill="#C2BEBB"/>
<path d="M190.84 252.61V238.68L182 219.63L182.01 233.55L190.84 252.61Z" fill="#C2BEBB"/>
<path d="M280.99 266.55V252.62L248 257.73L247.99 271.66L280.99 266.55Z" fill="#B5AFA7"/>
<path opacity="0.3" d="M406.18 285.24L413.12 275.79L397.96 279.33L389.75 277.32L386.4 272.54L389.88 267.79L405.04 264.25L388.67 260.25L370.75 264.44L363.81 273.89L308.48 286.81L305 291.55L308.35 296.33L316.57 298.34L371.9 285.41L388.27 289.42L406.19 285.23L406.18 285.24ZM316.78 294.53L313.18 293.65L311.72 291.55L313.25 289.47L316.87 288.63L320.47 289.51L321.94 291.6L320.42 293.68L316.79 294.53H316.78Z" fill="black"/>
<path d="M320.79 289.07L317.22 288.19V279.14L320.79 280V289.07Z" fill="#E6E1DD"/>
<path d="M317.22 288.19L313.66 289.03V279.97L317.22 279.14V288.19Z" fill="#D8D1C7"/>
<path d="M313.66 289.03L311.42 291.01V281.95L313.66 279.97V289.03Z" fill="#A39C95"/>
<path d="M320.79 289.07L323.03 291.04V281.98L320.79 280V289.07Z" fill="#D8D1C7"/>
<path d="M389.61 267.54L386.16 272.25V263.19L389.61 258.48V267.54Z" fill="#A39C95"/>
<path d="M405.78 275.77L412.66 266.4L397.62 269.91L389.48 267.91L386.16 263.18L389.61 258.48L404.64 254.97L388.41 251L370.64 255.15L363.76 264.52L308.9 277.34L305.44 282.04L308.76 286.78L316.91 288.77L371.77 275.95L388 279.92L405.78 275.77ZM317.14 284.98L313.57 284.11L312.11 282.03L313.62 279.97L317.21 279.14L320.78 280.01L322.24 282.09L320.73 284.15L317.14 284.99V284.98Z" fill="#F4EFE9"/>
<path d="M388.01 288.98L371.78 285.01V275.95L388.01 279.92V288.98Z" fill="#E6E1DD"/>
<path d="M405.78 284.83L388.01 288.98V279.92L405.78 275.77V284.83Z" fill="#D8D1C7"/>
<path d="M316.92 297.83L308.77 295.83V286.78L316.92 288.77V297.83Z" fill="#E6E1DD"/>
<path d="M308.77 295.83L305.45 291.1V282.04L308.77 286.78V295.83Z" fill="#F4EFE9"/>
<path d="M404.65 264.03L389.61 267.54V258.48L404.65 254.97V264.03Z" fill="#D8D1C7"/>
<path d="M371.78 285.01L316.92 297.83V288.77L371.78 275.95V285.01Z" fill="#D8D1C7"/>
<path d="M412.66 275.46L405.78 284.83V275.77L412.66 266.4V275.46Z" fill="#A39C95"/>
<path d="M22.36 78.04L20.66 82.14L21.35 83.78L24.71 85.26L29.02 85.48L29.83 82.96L30.63 82.44L31.32 79.39L30.23 76.92L24.18 76.13L22.36 78.04Z" fill="#F0C6B4"/>
<path d="M36.03 72.03L35.9 75.13L35.24 75.7V77.8L32.51 83.34L29.83 82.96L30.48 80.15L29.47 78.36L30.6 70.96L36.03 70.49V72.03Z" fill="#F0C6B4"/>
<path d="M32.15 82.81L31.06 81.27L30.58 79.82V81.58L32.15 82.81Z" fill="#C7A495"/>
<path d="M71.77 108L71.38 108.7L67.76 108.03V106.64L71.77 108Z" fill="#C7A495"/>
<path d="M62.9 105.78H66.65L68.12 106.78L68.53 110.71L66.44 111.61L65.34 110.29L63.84 110.17L62.9 108.96V105.78Z" fill="#F0C6B4"/>
<path opacity="0.3" d="M15.16 179.72L25.3 185.58H39.65L49.8 179.72V171.43L39.65 165.57H25.3L15.16 171.43V179.72Z" fill="black"/>
<path d="M26.29 166.01L29.75 167.17V167.84L28.31 170.32L25.53 172.27L23.11 176.23L20.06 175.95L19.79 174.76V174.01L26.29 166.01Z" fill="#0A0808"/>
<path d="M26.29 165.35L29.53 165.56L29.75 167.17L28.31 169.66L25.53 171.6L23.11 175.57L20.06 175.28L19.79 174.01L20.2 170.84L26.29 165.35Z" fill="#362C29"/>
<path d="M31.3 133.25L28.87 144.78L27.44 148.51L26.67 167.61L25.72 170.42L22.83 171.86L19.75 171.16L18.72 150.95L20.38 144.46L19.17 123.05L22.25 117.07L31.3 123.78V133.25Z" fill="#573711"/>
<path d="M47.95 178.62L47.93 179.18L43.91 181.84L38.17 182.17L32.4 183.18L30.75 181.41L30.78 180.85L47.95 178.62Z" fill="#0A0808"/>
<path d="M39.76 174.85L47.23 176.25L47.95 178.62L43.93 181.27L38.2 181.6L32.42 182.61L30.78 180.85L31.44 177.12L35.37 175.44L39.76 174.85Z" fill="#362C29"/>
<path d="M42.71 126.7L40.38 149.02L40.02 174.76L38.87 177.55L34.31 179.04L31.13 176.94L30.29 157.91L31.64 151.87L28.28 127.63L22.25 124.62L23.59 115.05L39.1 118.75L42.71 126.7Z" fill="#7B4A19"/>
<path d="M17.78 106.33L18.49 107.09L21.66 106.99V103.9L18.09 103.35L17.78 106.33Z" fill="#F0C6B4"/>
<path d="M14.25 104.68L17.49 106.83L19.08 106.3L20.21 104.32L20.12 102.81L17.49 100.98L14.25 104.68Z" fill="white"/>
<path d="M19.06 82.81L13.14 82.14L0 92.64L1.01 97.8L14.88 106.99L17.09 106.25L18.64 103.52L18.51 101.43L9.88 95.41L15.74 91.58L19.06 82.81Z" fill="#7B4A19"/>
<path d="M20.21 82.98L23.02 85.09L28.08 86.29L31.13 86.16L39.59 93.06L39.94 103.46L42.64 114.22L43.04 126.35L40.38 129.12L33.27 130.32L26.63 127.61L26.1 118.12L24.16 126.37L19.5 123.96L18.62 121.51L21.38 107.55L14.03 93.4L13.52 86.42L16.16 83.58L19.06 82.81L20.21 82.98Z" fill="#B87139"/>
<path d="M22.6 108.45L30.06 111.57L29.72 112.94L22.6 108.45Z" fill="#7B4A19"/>
<path d="M31.45 86.42L30.95 83.93L27.9 84.48L23.17 83.28L20.53 81.67L19.98 83.57L22.67 85.62L27.8 86.67L31.45 86.42Z" fill="white"/>
<path d="M59.11 105.32L62.53 105.49L63.83 106.52L63.84 108.9L62.69 110.05L59.96 110.46L59.11 105.32Z" fill="white"/>
<path d="M29.02 95.02L31.82 91.21L36.37 91.42L52.46 104.67L60.64 105.15L62.01 106.2L62.23 109.14L61.48 110.99L54.89 112.53L49.12 111.48L30.75 99.19L29.02 95.02Z" fill="#7B4A19"/>
<path d="M9.87996 95.41L7.43996 96.35H3.20996L7.51996 96.94L9.87996 95.41Z" fill="#573711"/>
<path d="M21.49 68.81L22.95 68.42L22.97 67.07L23.54 67.88L26.09 65L26.13 65.92L31.91 65.52L31.75 65.88L35.24 67.89L36.41 70.36L36.03 72.03L35.54 71.27L35.28 73.28L34.32 74.32L33.53 76.58L33.07 75.79L31.45 75.87L29.31 80.93H26.55L22.74 79.51L21.82 77.96L21.49 73.49L22.33 69.39L21.49 68.81Z" fill="#574943"/>
<path d="M326.31 88.86L324.06 78.73L339.42 73.02V81.3L326.31 88.86Z" fill="#CC934C"/>
<path d="M295.2 26.68H291.89L288.01 22.53L301.11 14.96L308.29 19.12L295.2 26.68Z" fill="#FBE979"/>
<path d="M346.31 84.1L341.26 75.31L354.34 67.74L359.42 76.54L346.31 84.1Z" fill="#FFC654"/>
<path d="M341.26 75.31L343.3 70.77L348.82 65.36L356.41 63.21L354.34 67.74L341.26 75.31Z" fill="#CC934C"/>
<path d="M306.78 47.48L305.45 33.56L319.88 27.54V39.93L315.21 44.34L306.78 47.48Z" fill="#CC934C"/>
<path d="M323.88 67.04L314.07 60.14L317.93 54.77L327.18 52.58L333.23 56.08L332.95 62.48L323.88 67.04Z" fill="#FBE979"/>
<path d="M307.23 16.37L303.95 13.94L302.16 7.58L315.24 0L320.32 8.82L307.23 16.37Z" fill="#FFC654"/>
<path d="M312.2 16.86L307.23 16.37L320.32 8.82001L325.29 9.29001L312.2 16.86Z" fill="#FBE979"/>
<path d="M343.3 70.77L350.49 74.91V58.6L343.3 54.46L341.26 47.54L346.33 44.61L336.34 27.31L331.27 30.24L326.31 25.01V16.72L312.2 8.55999V16.86L307.22 16.37L302.15 7.57999L292.17 13.33L297.25 22.14L295.19 26.68L288 22.53V38.84L295.19 42.98L297.25 49.89L292.17 52.82L302.15 70.12L307.22 67.18L312.2 72.43V80.71L326.31 88.87V80.58L331.27 81.08L336.34 89.86L346.31 84.1L341.26 75.31L343.3 70.77ZM331.73 61.88L324.43 66.1L314.08 60.14L306.79 47.49V35.55L314.08 31.34L324.43 37.31L331.73 49.96V61.89V61.88Z" fill="#E3BD5E"/>
<path d="M326.31 16.72L312.2 8.56001L325.29 1.01001L339.42 9.17001L326.31 16.72Z" fill="#FBE979"/>
<path d="M349.427 19.7499L336.333 27.3099L346.323 44.6131L359.417 37.0531L349.427 19.7499Z" fill="#FBE979"/>
<path d="M350.49 74.91V58.6L363.57 51.04V67.35L350.49 74.91Z" fill="#CC934C"/>
<path d="M326.31 25.01V16.72L339.42 9.17001V17.46L326.31 25.01Z" fill="#CC934C"/>
<path d="M343.3 54.45L341.26 47.54L354.34 39.99L356.41 46.89L343.3 54.45Z" fill="#FFC654"/>
<path d="M314.07 60.14L306.78 47.48L319.88 39.93L327.18 52.58L314.07 60.14Z" fill="#E09D38"/>
<path d="M331.27 30.24L326.31 25.01L339.42 17.46L344.36 22.7L331.27 30.24Z" fill="#FFC654"/>
<path d="M350.49 58.6L343.3 54.45L356.41 46.89L363.57 51.04L350.49 58.6Z" fill="#FBE979"/>
<path d="M330.3 75.93L328.61 78.59L319.03 79.1L307.64 72.56L298.02 60.44L292.46 45.66V33.23L298.02 24.77L300.69 24.91L330.3 75.93Z" fill="#A39C95"/>
<path d="M334.62 68.72V56.38L329.27 42.6L320.02 31.09L309.32 24.91L300.07 25.74L294.72 33.34V45.69L300.07 59.47L309.32 70.98L320.02 77.16L329.27 76.33L334.62 68.72Z" fill="white"/>
<path d="M329.27 42.6L320.02 31.09L314.62 27.97V51L334.62 62.55V56.38L329.27 42.6Z" fill="#FBE979"/>
<path d="M315.43 66.95V54.59L313.8 53.65V66.01L314.67 67.4L315.43 66.95Z" fill="#403531"/>
<path d="M314.19 67.67L314.67 67.4V55.04L313.04 54.1V66.46L313.51 67.28L314.19 67.67Z" fill="#685750"/>
<path d="M313.55 47.27L311.97 48.18V50.77L313.55 53.51L315.79 54.8L317.37 53.89V51.3L315.79 48.56L313.55 47.27Z" fill="#403531"/>
<path d="M312.04 48.14L310.45 49.06V51.64L312.04 54.38L314.27 55.67L315.86 54.76V52.18L314.27 49.43L312.04 48.14Z" fill="#685750"/>
<path d="M323.29 45.42L322.5 44.96L315.89 48.76L317.24 51.1L323.85 47.3V46.39L323.29 45.42Z" fill="#403531"/>
<path d="M322.52 45.87L321.73 45.41L315.12 49.21L316.47 51.55L323.08 47.75V46.84L322.52 45.87Z" fill="#685750"/>
<path d="M315.36 33.86L314.67 34.25L313.3 30.15L313.98 29.76L315.36 30.56V33.86Z" fill="#8A1C14"/>
<path d="M315.36 72.3L314.67 72.7L313.3 68.6L313.98 68.21L315.36 69V72.3Z" fill="#8A1C14"/>
<path d="M329.2 59.42L329.88 59.03L332.75 60.68V62.26L332.06 62.65L329.2 59.42Z" fill="#8A1C14"/>
<path d="M295.9 40.19L296.59 39.8L299.45 41.45V43.04L298.77 43.43L295.9 40.19Z" fill="#0A0808"/>
<path d="M325.917 69.4062L324.947 69.9655L326.97 73.4743L327.94 72.915L325.917 69.4062Z" fill="#8A1C14"/>
<path d="M302.373 28.6289L301.403 29.1901L303.433 32.695L304.402 32.1338L302.373 28.6289Z" fill="#0A0808"/>
<path d="M326.975 42.8202L324.949 43.9905L325.919 45.6704L327.945 44.5001L326.975 42.8202Z" fill="#8A1C14"/>
<path d="M303.427 56.4065L301.4 57.5758L302.369 59.2562L304.396 58.0869L303.427 56.4065Z" fill="#0A0808"/>
<path d="M314.67 34.25L313.3 33.46V30.15L314.67 30.95V34.25Z" fill="#C84030"/>
<path d="M314.67 72.7L313.3 71.9V68.6L314.67 69.39V72.7Z" fill="#C84030"/>
<path d="M329.2 61V59.42L332.06 61.07V62.65L329.2 61Z" fill="#C84030"/>
<path d="M295.9 41.78V40.19L298.77 41.85V43.43L295.9 41.78Z" fill="#574943"/>
<path d="M325.221 69.7714L324.25 70.3305L326.272 73.8397L327.242 73.2805L325.221 69.7714Z" fill="#C84030"/>
<path d="M301.694 29.018L300.724 29.5775L302.747 33.086L303.718 32.5265L301.694 29.018Z" fill="#574943"/>
<path d="M326.29 43.2059L324.265 44.3777L325.236 46.0569L327.262 44.8851L326.29 43.2059Z" fill="#C84030"/>
<path d="M302.749 56.8165L300.723 57.9872L301.694 59.6669L303.72 58.4962L302.749 56.8165Z" fill="#574943"/>
<path d="M329.61 42.41L319.42 29.73L307.64 22.93L297.44 23.84L291.56 32.21V45.8L297.44 60.97L307.64 73.65L319.42 80.45L329.61 79.54L335.5 71.16V57.57L329.61 42.4V42.41ZM333.48 69.38L328.13 76.98L318.87 77.81L308.18 71.64L298.92 60.12L293.58 46.34V34L298.92 26.4L308.18 25.57L318.87 31.74L328.13 43.26L333.48 57.04V69.38Z" fill="#D8D1C7"/>
<path d="M340.89 68.06L335.5 71.17V57.58L340.89 54.47V68.06Z" fill="#A39C95"/>
<path d="M335 76.44L329.62 79.55L335.5 71.17L340.89 68.06L335 76.44Z" fill="#87817C"/>
<path d="M324.81 26.61L319.42 29.72L307.64 22.92L313.03 19.81L324.81 26.61Z" fill="#E6E1DD"/>
<path d="M335 39.3L329.61 42.41L319.42 29.72L324.81 26.61L335 39.3Z" fill="#C2BEBB"/>
<path d="M313.03 19.81L307.64 22.92L297.45 23.84L302.84 20.73L313.03 19.81Z" fill="#C2BEBB"/>
<path d="M340.89 54.47L335.5 57.58L329.61 42.41L335 39.3L340.89 54.47Z" fill="#B5AFA7"/>
<path d="M446.31 219.86L444.06 209.73L459.42 204.02V212.3L446.31 219.86Z" fill="#5F9FAD"/>
<path d="M415.2 157.68H411.89L408.01 153.53L421.11 145.96L428.29 150.11L415.2 157.68Z" fill="#BAF3FF"/>
<path d="M466.31 215.1L461.26 206.31L474.34 198.74L479.43 207.54L466.31 215.1Z" fill="#6CB5C4"/>
<path d="M461.26 206.31L463.3 201.77L468.82 196.36L476.41 194.21L474.34 198.74L461.26 206.31Z" fill="#5F9FAD"/>
<path d="M426.78 178.48L425.45 164.56L439.88 158.54V170.93L435.22 175.34L426.78 178.48Z" fill="#5F9FAD"/>
<path d="M443.88 198.04L434.07 191.14L437.94 185.77L447.18 183.57L453.23 187.08L452.95 193.47L443.88 198.04Z" fill="#BAF3FF"/>
<path d="M427.23 147.37L423.95 144.94L422.16 138.58L435.24 131L440.32 139.82L427.23 147.37Z" fill="#6CB5C4"/>
<path d="M432.2 147.86L427.23 147.37L440.32 139.82L445.29 140.29L432.2 147.86Z" fill="#BAF3FF"/>
<path d="M463.3 201.77L470.49 205.91V189.6L463.3 185.46L461.26 178.54L466.33 175.62L456.34 158.32L451.27 161.25L446.31 156.02V147.73L432.2 139.57V147.87L427.22 147.38L422.15 138.59L412.17 144.34L417.25 153.15L415.19 157.69L408 153.54V169.85L415.19 173.99L417.25 180.9L412.17 183.83L422.15 201.12L427.22 198.19L432.2 203.44V211.72L446.31 219.88V211.59L451.27 212.09L456.34 220.87L466.31 215.11L461.26 206.32L463.3 201.78V201.77ZM451.73 192.88L444.43 197.1L434.08 191.14L426.79 178.49V166.55L434.08 162.34L444.43 168.31L451.73 180.96V192.88Z" fill="#7DD2E3"/>
<path d="M446.31 147.72L432.2 139.56L445.29 132L459.42 140.17L446.31 147.72Z" fill="#BAF3FF"/>
<path d="M469.43 150.755L456.336 158.315L466.326 175.619L479.42 168.059L469.43 150.755Z" fill="#BAF3FF"/>
<path d="M470.49 205.91V189.6L483.57 182.04V198.34L470.49 205.91Z" fill="#5F9FAD"/>
<path d="M446.31 156.01V147.72L459.42 140.17V148.45L446.31 156.01Z" fill="#5F9FAD"/>
<path d="M463.3 185.45L461.26 178.53L474.34 170.99L476.41 177.89L463.3 185.45Z" fill="#6CB5C4"/>
<path d="M434.07 191.14L426.78 178.48L439.88 170.93L447.18 183.57L434.07 191.14Z" fill="#6CB5C4"/>
<path d="M451.27 161.24L446.31 156.01L459.42 148.45L464.36 153.69L451.27 161.24Z" fill="#6CB5C4"/>
<path d="M470.49 189.6L463.3 185.45L476.41 177.89L483.57 182.04L470.49 189.6Z" fill="#BAF3FF"/>
<path d="M450.3 206.93L448.61 209.58L439.03 210.1L427.64 203.56L418.02 191.44L412.46 176.66V164.23L418.02 155.77L420.69 155.91L450.3 206.93Z" fill="#A39C95"/>
<path d="M454.62 199.72V187.38L449.27 173.6L440.02 162.08L429.32 155.91L420.07 156.74L414.72 164.34V176.69L420.07 190.46L429.32 201.98L440.02 208.16L449.27 207.33L454.62 199.72Z" fill="white"/>
<path d="M434.62 182L454.62 193.55V199.72L449.27 207.33L440.02 208.16L429.32 201.98L434.62 182Z" fill="#7DD2E3"/>
<path d="M435.43 197.95V185.59L433.8 184.65V197.01L434.67 198.4L435.43 197.95Z" fill="#403531"/>
<path d="M434.19 198.67L434.67 198.4V186.04L433.04 185.1V197.46L433.52 198.28L434.19 198.67Z" fill="#685750"/>
<path d="M433.55 178.27L431.97 179.18V181.77L433.55 184.51L435.79 185.8L437.37 184.88V182.3L435.79 179.56L433.55 178.27Z" fill="#403531"/>
<path d="M432.04 179.14L430.45 180.05V182.64L432.04 185.38L434.28 186.67L435.86 185.76V183.18L434.28 180.43L432.04 179.14Z" fill="#685750"/>
<path d="M443.29 176.42L442.5 175.96L435.89 179.76L437.24 182.1L443.85 178.3V177.39L443.29 176.42Z" fill="#403531"/>
<path d="M442.52 176.87L441.73 176.41L435.13 180.21L436.47 182.55L443.08 178.75V177.84L442.52 176.87Z" fill="#685750"/>
<path d="M435.36 164.86L434.67 165.25L433.3 161.15L433.98 160.76L435.36 161.56V164.86Z" fill="#8A1C14"/>
<path d="M435.36 203.3L434.67 203.69L433.3 199.6L433.98 199.21L435.36 200V203.3Z" fill="#8A1C14"/>
<path d="M449.2 190.42L449.89 190.02L452.75 191.68V193.26L452.06 193.65L449.2 190.42Z" fill="#8A1C14"/>
<path d="M415.9 171.19L416.59 170.8L419.45 172.45V174.04L418.77 174.43L415.9 171.19Z" fill="#0A0808"/>
<path d="M445.914 200.393L444.944 200.953L446.968 204.461L447.938 203.901L445.914 200.393Z" fill="#8A1C14"/>
<path d="M422.37 159.61L421.4 160.172L423.43 163.676L424.399 163.115L422.37 159.61Z" fill="#0A0808"/>
<path d="M446.972 173.808L444.946 174.979L445.917 176.659L447.943 175.488L446.972 173.808Z" fill="#8A1C14"/>
<path d="M423.432 187.427L421.405 188.597L422.375 190.277L424.402 189.107L423.432 187.427Z" fill="#0A0808"/>
<path d="M434.67 165.25L433.3 164.46V161.15L434.67 161.95V165.25Z" fill="#C84030"/>
<path d="M434.67 203.69L433.3 202.9V199.6L434.67 200.39V203.69Z" fill="#C84030"/>
<path d="M449.2 192V190.42L452.06 192.07V193.65L449.2 192Z" fill="#C84030"/>
<path d="M415.9 172.78V171.19L418.77 172.85V174.43L415.9 172.78Z" fill="#574943"/>
<path d="M445.226 200.792L444.256 201.351L446.279 204.86L447.249 204.3L445.226 200.792Z" fill="#C84030"/>
<path d="M421.684 159.995L420.714 160.554L422.737 164.062L423.707 163.503L421.684 159.995Z" fill="#574943"/>
<path d="M446.292 174.218L444.266 175.39L445.237 177.069L447.263 175.898L446.292 174.218Z" fill="#C84030"/>
<path d="M422.743 187.803L420.717 188.975L421.688 190.654L423.713 189.483L422.743 187.803Z" fill="#574943"/>
<path d="M449.61 173.41L439.42 160.73L427.64 153.93L417.44 154.84L411.56 163.21V176.8L417.44 191.97L427.64 204.65L439.42 211.45L449.61 210.54L455.5 202.16V188.57L449.61 173.4V173.41ZM453.48 200.38L448.13 207.98L438.87 208.81L428.18 202.64L418.92 191.12L413.57 177.34V165L418.92 157.4L428.18 156.57L438.87 162.74L448.13 174.26L453.48 188.04V200.38Z" fill="#D8D1C7"/>
<path d="M460.89 199.06L455.5 202.17V188.58L460.89 185.47V199.06Z" fill="#A39C95"/>
<path d="M455 207.43L449.62 210.54L455.5 202.17L460.89 199.06L455 207.43Z" fill="#87817C"/>
<path d="M444.81 157.61L439.42 160.72L427.64 153.92L433.03 150.81L444.81 157.61Z" fill="#E6E1DD"/>
<path d="M455 170.29L449.61 173.41L439.42 160.72L444.81 157.61L455 170.29Z" fill="#C2BEBB"/>
<path d="M433.03 150.81L427.64 153.92L417.45 154.83L422.84 151.72L433.03 150.81Z" fill="#C2BEBB"/>
<path d="M460.89 185.47L455.5 188.58L449.61 173.41L455 170.29L460.89 185.47Z" fill="#B5AFA7"/>
<path d="M363.7 162.93L362.13 155.87L372.83 151.89V157.66L363.7 162.93Z" fill="#8A1C14"/>
<path d="M342.01 119.59H339.71L337 116.7L346.13 111.42L351.13 114.32L342.01 119.59Z" fill="#FA5C52"/>
<path d="M377.63 159.61L374.11 153.48L383.23 148.21L386.77 154.34L377.63 159.61Z" fill="#AB281F"/>
<path d="M374.11 153.48L375.54 150.32L379.38 146.55L384.67 145.05L383.23 148.21L374.11 153.48Z" fill="#8A1C14"/>
<path d="M350.08 134.09L349.16 124.38L359.21 120.19V128.82L355.96 131.9L350.08 134.09Z" fill="#8A1C14"/>
<path d="M362 147.72L355.17 142.91L357.86 139.16L364.3 137.64L368.52 140.08L368.32 144.54L362 147.72Z" fill="#FA5C52"/>
<path d="M350.4 112.4L348.11 110.71L346.86 106.28L355.98 101L359.52 107.14L350.4 112.4Z" fill="#AB281F"/>
<path d="M353.86 112.75L350.4 112.4L359.52 107.14L362.98 107.47L353.86 112.75Z" fill="#FA5C52"/>
<path d="M375.54 150.32L380.55 153.2V141.83L375.54 138.94L374.12 134.12L377.65 132.08L370.69 120.02L367.16 122.06L363.7 118.41V112.64L353.87 106.95V112.73L350.4 112.39L346.87 106.26L339.92 110.27L343.46 116.41L342.02 119.57L337.01 116.68V128.05L342.02 130.94L343.46 135.76L339.92 137.8L346.87 149.85L350.4 147.81L353.87 151.47V157.24L363.7 162.92V157.14L367.16 157.49L370.69 163.61L377.64 159.6L374.12 153.48L375.54 150.32ZM367.47 144.12L362.38 147.06L355.17 142.9L350.09 134.08V125.76L355.17 122.82L362.38 126.98L367.47 135.8V144.11V144.12Z" fill="#C84030"/>
<path d="M363.7 112.65L353.86 106.96L362.98 101.7L372.83 107.38L363.7 112.65Z" fill="#FA5C52"/>
<path d="M379.816 114.759L370.688 120.029L377.648 132.084L386.776 126.814L379.816 114.759Z" fill="#FA5C52"/>
<path d="M380.55 153.2V141.83L389.66 136.57V147.93L380.55 153.2Z" fill="#8A1C14"/>
<path d="M363.7 118.43V112.65L372.83 107.38V113.16L363.7 118.43Z" fill="#8A1C14"/>
<path d="M375.54 138.95L374.11 134.13L383.23 128.87L384.67 133.67L375.54 138.95Z" fill="#AB281F"/>
<path d="M355.17 142.91L350.08 134.09L359.21 128.82L364.3 137.64L355.17 142.91Z" fill="#AB281F"/>
<path d="M367.15 122.07L363.7 118.43L372.83 113.16L376.27 116.81L367.15 122.07Z" fill="#AB281F"/>
<path d="M380.55 141.83L375.54 138.95L384.67 133.67L389.66 136.57L380.55 141.83Z" fill="#FA5C52"/>
<path d="M366.47 153.91L365.3 155.77L358.62 156.12L350.69 151.57L343.98 143.12L340.1 132.82V124.15L343.98 118.26L345.84 118.36L366.47 153.91Z" fill="#A39C95"/>
<path d="M369.49 148.89V140.29L365.76 130.69L359.31 122.66L351.85 118.36L345.4 118.93L341.68 124.23V132.84L345.4 142.44L351.85 150.46L359.31 154.77L365.76 154.19L369.49 148.89Z" fill="white"/>
<path d="M355.55 136.54L343.5 137.54L345.4 142.44L351.85 150.46L355.55 136.54Z" fill="#C84030"/>
<path d="M356.11 147.65V139.04L354.98 138.39V147L355.58 147.97L356.11 147.65Z" fill="#403531"/>
<path d="M355.25 148.16L355.58 147.97V139.36L354.44 138.7V147.31L354.78 147.89L355.25 148.16Z" fill="#685750"/>
<path d="M354.8 133.94L353.7 134.57V136.38L354.8 138.29L356.36 139.19L357.46 138.55V136.75L356.36 134.84L354.8 133.94Z" fill="#403531"/>
<path d="M353.75 134.55L352.64 135.18V136.99L353.75 138.9L355.31 139.8L356.41 139.16V137.36L355.31 135.45L353.75 134.55Z" fill="#685750"/>
<path d="M361.59 132.65L361.04 132.33L356.43 134.98L357.37 136.61L361.98 133.96V133.32L361.59 132.65Z" fill="#403531"/>
<path d="M361.06 132.96L360.5 132.64L355.9 135.29L356.84 136.92L361.44 134.27V133.64L361.06 132.96Z" fill="#685750"/>
<path d="M356.06 124.6L355.58 124.87L354.62 122.01L355.1 121.74L356.06 122.29V124.6Z" fill="#8A1C14"/>
<path d="M356.06 151.39L355.58 151.66L354.62 148.8L355.1 148.53L356.06 149.08V151.39Z" fill="#8A1C14"/>
<path d="M365.71 142.41L366.19 142.13L368.18 143.28V144.39L367.7 144.66L365.71 142.41Z" fill="#8A1C14"/>
<path d="M342.5 129.01L342.98 128.74L344.98 129.89V130.99L344.5 131.26L342.5 129.01Z" fill="#0A0808"/>
<path d="M363.409 149.362L362.734 149.751L364.142 152.195L364.818 151.805L363.409 149.362Z" fill="#8A1C14"/>
<path d="M347.008 120.914L346.333 121.305L347.744 123.746L348.419 123.356L347.008 120.914Z" fill="#0A0808"/>
<path d="M364.155 130.851L362.744 131.666L363.42 132.835L364.831 132.02L364.155 130.851Z" fill="#8A1C14"/>
<path d="M347.746 140.322L346.334 141.136L347.008 142.306L348.42 141.491L347.746 140.322Z" fill="#0A0808"/>
<path d="M355.58 124.87L354.62 124.31V122.01L355.58 122.56V124.87Z" fill="#C84030"/>
<path d="M355.58 151.66L354.62 151.11V148.8L355.58 149.36V151.66Z" fill="#C84030"/>
<path d="M365.71 143.51V142.41L367.7 143.56V144.66L365.71 143.51Z" fill="#C84030"/>
<path d="M342.5 130.11V129.01L344.5 130.16V131.26L342.5 130.11Z" fill="#574943"/>
<path d="M362.941 149.642L362.265 150.031L363.673 152.475L364.349 152.085L362.941 149.642Z" fill="#C84030"/>
<path d="M346.542 121.232L345.866 121.621L347.275 124.065L347.95 123.675L346.542 121.232Z" fill="#574943"/>
<path d="M363.673 131.114L362.261 131.929L362.941 133.107L364.353 132.292L363.673 131.114Z" fill="#C84030"/>
<path d="M347.261 140.577L345.849 141.392L346.523 142.561L347.935 141.747L347.261 140.577Z" fill="#574943"/>
<path d="M366 130.55L358.9 121.71L350.69 116.97L343.58 117.61L339.48 123.44V132.91L343.58 143.48L350.69 152.32L358.9 157.06L366 156.43L370.1 150.59V141.12L366 130.55ZM368.69 149.35L364.97 154.65L358.52 155.23L351.07 150.93L344.62 142.9L340.89 133.3V124.7L344.62 119.4L351.07 118.82L358.52 123.12L364.97 131.15L368.69 140.75V149.36V149.35Z" fill="#D8D1C7"/>
<path d="M373.85 148.43L370.1 150.6V141.12L373.85 138.96V148.43Z" fill="#A39C95"/>
<path d="M369.75 154.27L366 156.44L370.1 150.6L373.85 148.43L369.75 154.27Z" fill="#87817C"/>
<path d="M362.65 119.54L358.89 121.71L350.69 116.97L354.44 114.8L362.65 119.54Z" fill="#E6E1DD"/>
<path d="M369.75 128.38L366 130.55L358.89 121.71L362.65 119.54L369.75 128.38Z" fill="#C2BEBB"/>
<path d="M354.44 114.8L350.69 116.97L343.58 117.61L347.33 115.44L354.44 114.8Z" fill="#C2BEBB"/>
<path d="M373.85 138.96L370.1 141.12L366 130.55L369.75 128.38L373.85 138.96Z" fill="#B5AFA7"/>
<path d="M417.41 116.16L415.34 106.8L429.53 101.52V109.17L417.41 116.16Z" fill="#6B874F"/>
<path d="M388.64 58.67H385.59L382 54.83L394.11 47.84L400.75 51.68L388.64 58.67Z" fill="#CFDB77"/>
<path d="M435.9 111.76L431.23 103.63L443.33 96.63L448.03 104.77L435.9 111.76Z" fill="#87A15F"/>
<path d="M431.23 103.63L433.12 99.44L438.22 94.43L445.24 92.45L443.33 96.63L431.23 103.63Z" fill="#6B874F"/>
<path d="M399.35 77.91L398.12 65.03L411.46 59.46V70.92L407.15 75L399.35 77.91Z" fill="#6B874F"/>
<path d="M415.16 95.99L406.1 89.61L409.67 84.64L418.22 82.61L423.81 85.85L423.55 91.77L415.16 95.99Z" fill="#CFDB77"/>
<path d="M399.77 49.14L396.73 46.89L395.08 41.01L407.18 34L411.87 42.16L399.77 49.14Z" fill="#87A15F"/>
<path d="M404.37 49.59L399.77 49.14L411.87 42.16L416.46 42.59L404.37 49.59Z" fill="#CFDB77"/>
<path d="M433.12 99.44L439.77 103.27V88.19L433.12 84.36L431.23 77.96L435.91 75.26L426.68 59.27L421.99 61.98L417.41 57.14V49.48L404.37 41.93V49.6L399.77 49.15L395.09 41.02L385.86 46.34L390.55 54.49L388.64 58.69L382 54.85V69.93L388.64 73.76L390.55 80.15L385.86 82.86L395.09 98.85L399.77 96.13L404.37 100.98V108.64L417.41 116.18V108.52L421.99 108.98L426.68 117.1L435.9 111.77L431.23 103.64L433.12 99.44ZM422.42 91.22L415.67 95.12L406.1 89.61L399.36 77.91V66.87L406.1 62.97L415.67 68.49L422.42 80.19V91.22Z" fill="#9FB366"/>
<path d="M417.41 49.46L404.37 41.92L416.46 34.93L429.53 42.48L417.41 49.46Z" fill="#CFDB77"/>
<path d="M438.784 52.2479L426.677 59.2379L435.912 75.2334L448.019 68.2434L438.784 52.2479Z" fill="#CFDB77"/>
<path d="M439.77 103.26V88.18L451.86 81.2V96.27L439.77 103.26Z" fill="#6B874F"/>
<path d="M417.41 57.13V49.46L429.53 42.48V50.14L417.41 57.13Z" fill="#6B874F"/>
<path d="M433.12 84.35L431.23 77.95L443.33 70.98L445.24 77.36L433.12 84.35Z" fill="#87A15F"/>
<path d="M406.1 89.61L399.35 77.91L411.46 70.92L418.22 82.61L406.1 89.61Z" fill="#87A15F"/>
<path d="M422 61.96L417.41 57.13L429.53 50.14L434.1 54.99L422 61.96Z" fill="#87A15F"/>
<path d="M439.77 88.18L433.12 84.35L445.24 77.36L451.86 81.2L439.77 88.18Z" fill="#CFDB77"/>
<path d="M421.1 104.21L419.54 106.66L410.67 107.14L400.15 101.09L391.26 89.88L386.11 76.22V64.73L391.26 56.9L393.72 57.04L421.1 104.21Z" fill="#A39C95"/>
<path d="M425.09 97.54V86.13L420.15 73.39L411.59 62.74L401.7 57.04L393.14 57.8L388.2 64.83V76.24L393.14 88.98L401.7 99.63L411.59 105.34L420.15 104.58L425.09 97.54Z" fill="white"/>
<path d="M406.6 81.16L401.39 58.07L400.65 57.64L392.76 58.35L388.2 64.83V76.24L390.62 82.48L406.6 81.16Z" fill="#CFDB77"/>
<path d="M407.35 95.9V84.48L405.85 83.61V95.03L406.64 96.32L407.35 95.9Z" fill="#403531"/>
<path d="M406.2 96.57L406.64 96.32V84.9L405.14 84.03V95.45L405.58 96.21L406.2 96.57Z" fill="#685750"/>
<path d="M405.61 77.71L404.15 78.55V80.94L405.61 83.47L407.68 84.67L409.14 83.83V81.44L407.68 78.9L405.61 77.71Z" fill="#403531"/>
<path d="M404.21 78.51L402.75 79.36V81.75L404.21 84.28L406.28 85.48L407.74 84.63V82.24L406.28 79.71L404.21 78.51Z" fill="#685750"/>
<path d="M414.61 76L413.89 75.58L407.78 79.09L409.02 81.25L415.13 77.73V76.89L414.61 76Z" fill="#403531"/>
<path d="M413.91 76.41L413.18 75.99L407.07 79.5L408.31 81.66L414.42 78.15V77.31L413.91 76.41Z" fill="#685750"/>
<path d="M407.28 65.31L406.65 65.67L405.38 61.88L406.01 61.52L407.28 62.25V65.31Z" fill="#8A1C14"/>
<path d="M407.28 100.86L406.65 101.22L405.38 97.43L406.01 97.07L407.28 97.8V100.86Z" fill="#8A1C14"/>
<path d="M420.08 88.94L420.72 88.58L423.36 90.11V91.57L422.73 91.93L420.08 88.94Z" fill="#8A1C14"/>
<path d="M389.3 71.17L389.93 70.8L392.58 72.33V73.8L391.94 74.16L389.3 71.17Z" fill="#0A0808"/>
<path d="M417.043 98.1466L416.141 98.6649L418.005 101.907L418.906 101.389L417.043 98.1466Z" fill="#8A1C14"/>
<path d="M395.273 60.4614L394.373 60.9818L396.244 64.22L397.145 63.6997L395.273 60.4614Z" fill="#0A0808"/>
<path d="M418.026 73.6198L416.156 74.7011L417.057 76.2593L418.927 75.178L418.026 73.6198Z" fill="#8A1C14"/>
<path d="M396.235 86.1345L394.365 87.2148L395.265 88.7735L397.136 87.6932L396.235 86.1345Z" fill="#0A0808"/>
<path d="M406.65 65.67L405.38 64.94V61.88L406.65 62.62V65.67Z" fill="#C84030"/>
<path d="M406.65 101.22L405.38 100.48V97.4301L406.65 98.16V101.22Z" fill="#C84030"/>
<path d="M420.08 90.4101V88.9401L422.73 90.4701V91.9301L420.08 90.4101Z" fill="#C84030"/>
<path d="M389.3 72.63V71.17L391.94 72.69V74.16L389.3 72.63Z" fill="#574943"/>
<path d="M416.411 98.512L415.51 99.0326L417.383 102.27L418.283 101.75L416.411 98.512Z" fill="#C84030"/>
<path d="M394.647 60.8347L393.746 61.3546L395.615 64.5938L396.516 64.074L394.647 60.8347Z" fill="#574943"/>
<path d="M417.386 73.9652L415.515 75.0449L416.415 76.6039L418.286 75.5242L417.386 73.9652Z" fill="#C84030"/>
<path d="M395.611 86.5069L393.741 87.5875L394.641 89.1461L396.511 88.0654L395.611 86.5069Z" fill="#574943"/>
<path d="M420.47 73.21L411.04 61.48L400.15 55.19L390.72 56.03L385.28 63.77V76.34L390.72 90.37L400.15 102.1L411.04 108.38L420.47 107.54L425.91 99.8V87.23L420.47 73.2V73.21ZM424.04 98.15L419.1 105.18L410.54 105.94L400.65 100.23L392.09 89.58L387.15 76.84V65.43L392.09 58.4L400.65 57.63L410.54 63.34L419.1 73.99L424.04 86.73V98.14V98.15Z" fill="#D8D1C7"/>
<path d="M430.89 96.93L425.91 99.81V87.24L430.89 84.36V96.93Z" fill="#A39C95"/>
<path d="M425.45 104.68L420.47 107.55L425.91 99.81L430.89 96.93L425.45 104.68Z" fill="#87817C"/>
<path d="M416.02 58.61L411.04 61.48L400.15 55.2L405.13 52.32L416.02 58.61Z" fill="#E6E1DD"/>
<path d="M425.45 70.33L420.47 73.21L411.04 61.48L416.02 58.61L425.45 70.33Z" fill="#C2BEBB"/>
<path d="M405.13 52.32L400.15 55.2L390.72 56.04L395.71 53.16L405.13 52.32Z" fill="#C2BEBB"/>
<path d="M430.89 84.36L425.91 87.24L420.47 73.21L425.45 70.33L430.89 84.36Z" fill="#B5AFA7"/>
<path opacity="0.3" d="M91.95 164.59L106.47 172.97H127.02L141.55 164.59V152.73L127.02 144.34H106.48L91.95 152.73V164.6V164.59Z" fill="black"/>
<path d="M91.85 155.46V156.6L92.85 157.43L114.98 159.71L118.93 172.49L120.37 173.07L122.1 172.89L123.1 172.06V170.92L122.7 170.45L119.08 159.07L135.23 149.74V148.6L133.99 147.7H132.23L116.08 157.02L93.59 154.7L91.84 155.45L91.85 155.46Z" fill="#403531"/>
<path d="M92.16 154.46L91.85 155.46L92.85 156.29L114.98 158.58L118.93 171.35L120.37 171.93L122.1 171.75L123.1 170.92L119.08 157.93L135.23 148.6V147.58L133.99 146.86H132.23L116.08 156.19L93.59 153.87L92.15 154.45L92.16 154.46Z" fill="#836E69"/>
<path d="M117.46 157.1H115.78L114.59 156.42V155.44L115.78 154.76H117.46L118.65 155.44V156.42L117.46 157.1Z" fill="#E6E1DD"/>
<path d="M115.78 157.1L114.59 156.42V157.99L115.78 158.68L115.87 157.23L115.78 157.1Z" fill="#D8D1C7"/>
<path d="M117.46 157.1H115.78V158.68H117.46L117.59 157.2L117.46 157.1Z" fill="#BFB8AF"/>
<path d="M118.65 156.42L117.46 157.1V158.68L118.65 157.99V156.42Z" fill="#A39C95"/>
<path d="M117.12 124.83H116.15L115.48 124.44V123.88L116.15 123.49H117.12L117.8 123.88V124.44L117.12 124.83Z" fill="#785B56"/>
<path d="M116.15 124.83L115.48 124.44V156.1L116.15 156.49L116.21 124.9L116.15 124.83Z" fill="#574943"/>
<path d="M117.12 124.83H116.15V156.49H117.12L117.19 124.88L117.12 124.83Z" fill="#362C29"/>
<path d="M117.8 124.44L117.12 124.83V156.49L117.8 156.1V124.44Z" fill="#0A0808"/>
<path d="M117.71 123.63H115.54L114.01 122.74V121.49L115.54 120.61H117.71L119.24 121.49V122.74L117.71 123.63Z" fill="#E6E1DD"/>
<path d="M115.54 123.63L114.01 122.74V124.76L115.54 125.65L115.67 123.79L115.54 123.63Z" fill="#D8D1C7"/>
<path d="M117.71 123.63H115.54V125.65H117.71L117.88 123.75L117.71 123.63Z" fill="#BFB8AF"/>
<path d="M119.24 122.74L117.71 123.63V125.65L119.24 124.76V122.74Z" fill="#A39C95"/>
<path d="M76.98 32.77L78.06 30.89L79.59 30.01L80.68 30.63V32.4L79.59 34.28L78.06 35.16L76.98 34.53V32.77Z" fill="#A39C95"/>
<path d="M78.0599 30.89L79.5899 30.01L77.8399 29L76.3099 29.88L77.8599 30.92L78.0599 30.89Z" fill="#E6E1DD"/>
<path d="M76.98 32.77L78.06 30.89L76.31 29.88L75.23 31.76L76.79 32.85L76.98 32.77Z" fill="#D8D1C7"/>
<path d="M76.98 34.53V32.77L75.23 31.76V33.52L76.98 34.53Z" fill="#B5AFA7"/>
<path d="M76.98 99.86L78.06 97.99L79.59 97.1L80.68 97.73V99.49L79.59 101.37L78.06 102.25L76.98 101.63V99.86Z" fill="#A39C95"/>
<path d="M78.0599 97.99L79.5899 97.1L77.8399 96.09L76.3099 96.97L77.8599 98.01L78.0599 97.99Z" fill="#E6E1DD"/>
<path d="M76.98 99.86L78.06 97.99L76.31 96.97L75.23 98.85L76.79 99.95L76.98 99.86Z" fill="#D8D1C7"/>
<path d="M76.98 101.63V99.86L75.23 98.85V100.62L76.98 101.63Z" fill="#B5AFA7"/>
<path d="M153.21 143.53L153.99 142.19L155.1 141.55L155.87 142V143.27L155.1 144.62L153.99 145.26L153.21 144.81V143.53Z" fill="#785B56"/>
<path d="M153.99 142.19L155.1 141.55L79.39 97.84L78.29 98.48L153.85 142.2L153.99 142.19Z" fill="#836E69"/>
<path d="M153.21 143.53L153.99 142.19L78.29 98.48L77.51 99.83L153.07 143.6L153.21 143.53Z" fill="#685750"/>
<path d="M153.21 144.81V143.53L77.51 99.83V101.1L153.21 144.81Z" fill="#403531"/>
<path d="M154.38 142.2H154.74V77.8H154.38L148.63 114.22L154.38 142.2Z" fill="#D1D1D1"/>
<path d="M78.76 98.21L154.36 141.86V77.24L78.76 33.59V98.21Z" fill="white"/>
<path d="M153.21 76.44L153.99 75.09L155.1 74.46L155.87 74.9V76.18L155.1 77.53L153.99 78.17L153.21 77.72V76.44Z" fill="#785B56"/>
<path d="M153.99 75.09L155.1 74.46L79.39 30.75L78.29 31.38L153.85 75.11L153.99 75.09Z" fill="#836E69"/>
<path d="M153.21 76.44L153.99 75.09L78.29 31.38L77.51 32.73L153.07 76.5L153.21 76.44Z" fill="#685750"/>
<path d="M153.21 77.72V76.44L77.51 32.73V34.01L153.21 77.72Z" fill="#403531"/>
<path d="M154.33 77.42L155.41 75.55L156.94 74.67L158.02 75.29V77.06L156.94 78.93L155.41 79.82L154.33 79.19V77.42Z" fill="#A39C95"/>
<path d="M155.41 75.55L156.94 74.67L155.19 73.66L153.66 74.54L155.21 75.57L155.41 75.55Z" fill="#E6E1DD"/>
<path d="M154.33 77.42L155.41 75.55L153.66 74.54L152.58 76.41L154.13 77.51L154.33 77.42Z" fill="#D8D1C7"/>
<path d="M154.33 79.19V77.42L152.58 76.41V78.18L154.33 79.19Z" fill="#B5AFA7"/>
<path d="M154.33 144.52L155.41 142.64L156.94 141.76L158.02 142.38V144.15L156.94 146.02L155.41 146.91L154.33 146.28V144.52Z" fill="#A39C95"/>
<path d="M155.41 142.64L156.94 141.76L155.19 140.75L153.66 141.63L155.21 142.67L155.41 142.64Z" fill="#E6E1DD"/>
<path d="M154.33 144.52L155.41 142.64L153.66 141.63L152.58 143.51L154.13 144.6L154.33 144.52Z" fill="#D8D1C7"/>
<path d="M154.33 146.28V144.52L152.58 143.51V145.27L154.33 146.28Z" fill="#B5AFA7"/>
<path d="M88.7701 98.33L85.6801 46.55L86.3601 46.89L89.4501 98.66L88.7701 98.33Z" fill="#439A97"/>
<path d="M146.84 132.22L89.11 98.89V98.1L146.84 131.42V132.22Z" fill="#439A97"/>
<path d="M146.57 131.93L144.34 127.66L144.86 127.44L147.09 131.71L146.57 131.93Z" fill="#439A97"/>
<path d="M143.18 131.87L142.92 130.98L146.7 131.38L146.96 132.26L143.18 131.87Z" fill="#439A97"/>
<path d="M85.33 52.15L84.65 51.61L85.68 46.45L86.36 47L85.33 52.15Z" fill="#439A97"/>
<path d="M87.2401 53.29L85.6901 46.65L86.3501 46.79L87.8901 53.44L87.2401 53.29Z" fill="#439A97"/>
<path d="M96.16 102.58L95.47 87.71L96.15 88.06L96.84 102.94L96.16 102.58Z" fill="#439A97"/>
<path d="M95.88 88.31L95.75 87.45L101.07 89.34L101.2 90.19L95.88 88.31Z" fill="#439A97"/>
<path d="M101.48 105.64L100.79 105.24V89.57L101.48 89.97V105.64Z" fill="#439A97"/>
<path d="M95.86 91.08L95.77 90.24L101.09 92.52L101.18 93.36L95.86 91.08Z" fill="#439A97"/>
<path d="M96.1101 94.13L96.05 93.31L101.11 95.77L101.17 96.59L96.1101 94.13Z" fill="#439A97"/>
<path d="M96.18 97.22L96.14 96.4L101.12 98.95L101.16 99.76L96.18 97.22Z" fill="#439A97"/>
<path d="M96.38 100.18L96.35 99.36L101.12 101.86L101.15 102.67L96.38 100.18Z" fill="#439A97"/>
<path d="M108.01 109.41L107.32 109.01L107.41 87.14L108.1 87.54L108.01 109.41Z" fill="#439A97"/>
<path d="M107.8 87.76L107.71 86.92L114.32 89.74L114.41 90.58L107.8 87.76Z" fill="#439A97"/>
<path d="M113.59 112.65L112.91 112.21L114.02 89.94L114.71 90.38L113.59 112.65Z" fill="#439A97"/>
<path d="M114.13 95.19L107.75 91.4L107.76 90.61L114.14 94.4L114.13 95.19Z" fill="#439A97"/>
<path d="M113.81 99.26L107.67 95.72V94.92L113.81 98.47V99.26Z" fill="#439A97"/>
<path d="M113.81 103.23L107.75 99.73V98.94L113.81 102.44V103.23Z" fill="#439A97"/>
<path d="M113.56 106.47L107.75 103L107.76 102.22L113.57 105.68L113.56 106.47Z" fill="#439A97"/>
<path d="M113.23 110.33L107.64 106.68L107.69 105.91L113.27 109.57L113.23 110.33Z" fill="#439A97"/>
<path d="M120.64 116.71L119.77 88.94L120.46 89.31L121.32 117.08L120.64 116.71Z" fill="#439A97"/>
<path d="M127.47 94.56L120.09 89.5L120.15 88.75L127.54 93.8L127.47 94.56Z" fill="#439A97"/>
<path d="M127.08 120.43L126.39 120L127.16 93.97L127.85 94.39L127.08 120.43Z" fill="#439A97"/>
<path d="M127.43 98.09L120.12 91.96L120.27 91.27L127.58 97.41L127.43 98.09Z" fill="#439A97"/>
<path d="M126.69 101.44L120.08 96.63L120.17 95.9L126.78 100.71L126.69 101.44Z" fill="#439A97"/>
<path d="M127.15 105.78L119.67 100.86L119.71 100.1L127.2 105.01L127.15 105.78Z" fill="#439A97"/>
<path d="M120.14 106.89L120.1 106.07L127.15 109.55L127.2 110.37L120.14 106.89Z" fill="#439A97"/>
<path d="M127.11 115.07L120.11 110.7L120.14 109.93L127.13 114.3L127.11 115.07Z" fill="#439A97"/>
<path d="M120.99 114.82L120.97 114.01L126.8 117.16L126.82 117.97L120.99 114.82Z" fill="#439A97"/>
<path d="M132.58 123.61L131.29 85.57L131.97 85.93L133.26 123.97L132.58 123.61Z" fill="#FA5C52"/>
<path d="M130.7 85.61L130.67 84.8L139.94 89.56L139.98 90.37L130.7 85.61Z" fill="#FA5C52"/>
<path d="M140.31 128.05L139.62 127.65V89.77L140.31 90.16V128.05Z" fill="#FA5C52"/>
<path d="M139.95 94.13L131.63 89.22V88.43L139.96 93.34L139.95 94.13Z" fill="#FA5C52"/>
<path d="M139.95 99.58L131.61 94.37L131.64 93.59L139.97 98.8L139.95 99.58Z" fill="#FA5C52"/>
<path d="M139.96 104.38L131.63 99.57V98.78L139.96 103.59V104.38Z" fill="#FA5C52"/>
<path d="M132.26 104.16L132.22 103.35L139.94 107.31L139.98 108.13L132.26 104.16Z" fill="#FA5C52"/>
<path d="M132.31 109.35L132.24 108.52L139.92 112.06L140 112.89L132.31 109.35Z" fill="#FA5C52"/>
<path d="M132.62 114.76L132.57 113.94L139.93 117.52L139.99 118.35L132.62 114.76Z" fill="#FA5C52"/>
<path d="M132.95 119.14L132.89 118.31L139.93 121.69L139.99 122.51L132.95 119.14Z" fill="#FA5C52"/>
<path d="M92.09 80.01L91.97 79.2L100.94 82.35L109.64 80.98L119.53 82.03L126.95 79.21L132.39 72.34L125.21 71.27L124.99 70.44L133.94 71.78L127.4 80.01L119.82 82.86L109.94 81.81L101.13 83.17L92.09 80.01Z" fill="#FA5C52"/>
<path d="M132.92 80.33L132.28 79.9L132.84 71.85L133.49 72.28L132.92 80.33Z" fill="#FA5C52"/>
<path opacity="0.3" d="M53 191.85V204.79L68.86 213.95H91.27L107.13 204.79V191.85L91.27 182.69H68.86L53 191.85Z" fill="black"/>
<path d="M56.46 201.21V189.92L70.29 181.93H89.84L103.67 189.92V201.21L89.84 209.19H70.29L56.46 201.21Z" fill="white"/>
<path d="M89.8399 209.19H70.2899V211.73H89.8399V209.19Z" fill="#D1D1D1"/>
<path d="M89.84 211.73L103.67 203.75V201.21L89.84 209.19V211.73Z" fill="#A39C95"/>
<path d="M70.29 211.73L56.46 203.75V201.21L70.29 209.19V211.73Z" fill="#F4EFE9"/>
<path d="M66.17 189.38V182.73L74.31 178.03H85.81L93.95 182.73V189.38L85.81 194.08H74.31L66.17 189.38Z" fill="#FBE979"/>
<path d="M85.8201 194.08H74.3101V202.56H85.8201V194.08Z" fill="#D1D1D1"/>
<path d="M85.8101 202.56L93.9501 197.86V189.38L85.8101 194.08V202.56Z" fill="#A39C95"/>
<path d="M74.31 202.56L66.17 197.86V189.38L74.31 194.08V202.56Z" fill="#F4EFE9"/>
<path d="M53 182.41L61.66 180.49L72.4 191.56L71.96 196.56L60.51 189.93L53 182.41Z" fill="#D1D1D1"/>
<path d="M107.12 182.41L98.46 180.49L87.72 191.56L88.16 196.56L99.61 189.93L107.12 182.41Z" fill="#736656"/>
<path d="M54.42 165.26L70.01 174.14L71.48 174.52L70.42 144.08L54.42 153.11V165.26Z" fill="#A39C95"/>
<path d="M70.01 174.14H90.12L91.02 144.08L70.01 145.1V174.14Z" fill="#D1D1D1"/>
<path d="M104.96 165.59L90.12 174.07V145.1L104.96 152.76V165.59Z" fill="#F4EFE9"/>
<path d="M55.79 156.91L70.01 148.69H90.11L104.33 156.91V168.51L90.11 176.72H70.01L55.79 168.51V156.91Z" fill="#693121"/>
<path d="M68.5699 159.56V165.05L75.2999 168.94H84.8099L91.5399 165.05V159.56L84.8099 155.67H75.2999L68.5699 159.56ZM77.7799 162.38L77.2799 162.66H76.5799L76.0799 162.38V161.97L76.5799 161.68H77.2799L77.7799 161.97V162.38ZM79.4299 158.18L79.1999 158.31H78.8799L78.6599 158.18V158L78.8799 157.87H79.1999L79.4299 158V158.18ZM79.6799 159.1L80.4299 159.53V160.15L79.6799 160.58H78.6199L77.8599 160.15V159.53L78.6199 159.1H79.6799ZM80.9999 156.72L80.6799 156.91H80.2399L79.9299 156.72V156.46L80.2399 156.28H80.6799L80.9999 156.46V156.72ZM84.6399 158.72L83.6499 159.29H82.2499L81.2599 158.72V157.91L82.2499 157.33H83.6499L84.6399 157.91V158.72ZM81.7099 161.43H82.4099L82.9099 161.71V162.12L82.4099 162.41H81.7099L81.2099 162.12V161.71L81.7099 161.43ZM86.0799 159.37L85.8599 159.5H85.5399L85.3199 159.37V159.2L85.5399 159.07H85.8599L86.0799 159.2V159.37ZM85.4099 163.8V163.98L85.1899 164.11H84.8699L84.6499 163.98V163.8L84.8699 163.67H85.1899L85.4099 163.8ZM89.6299 160.27L89.1299 160.56H88.4299L87.9299 160.27V159.86L88.4299 159.57H89.1299L89.6299 159.86V160.27ZM88.7899 163.87H87.3899L86.3999 163.3V162.49L87.3899 161.92H88.7899L89.7799 162.49V163.3L88.7899 163.87ZM85.7099 164.82L86.2099 164.53H86.9099L87.4099 164.82V165.23L86.9099 165.51H86.2099L85.7099 165.23V164.82ZM84.5199 166.67L84.8199 166.49H85.2499L85.5499 166.67V166.92L85.2499 167.1H84.8199L84.5199 166.92V166.67ZM84.1399 161.98L84.4399 161.8H84.8699L85.1699 161.98V162.23L84.8699 162.4H84.4399L84.1399 162.23V161.98ZM83.8399 161.05L83.3399 160.76V160.35L83.8399 160.07H84.5399L85.0399 160.35V160.76L84.5399 161.05H83.8399ZM82.6299 166.07L82.9299 165.9H83.3599L83.6599 166.07V166.32L83.3599 166.49H82.9299L82.6299 166.32V166.07ZM81.0299 167.49L81.4699 167.23H82.1099L82.5599 167.49V167.85L82.1099 168.11H81.4699L81.0299 167.85V167.49ZM79.5099 166.32L79.7299 166.19H80.0499L80.2699 166.32V166.5L80.0499 166.63H79.7299L79.5099 166.5V166.32ZM79.5099 163.97L80.2599 163.54H81.3299L82.0899 163.97V164.58L81.3299 165.02H80.2599L79.5099 164.58V163.97ZM79.4999 163.1H78.8699L78.4199 162.84V162.48L78.8699 162.22H79.4999L79.9499 162.48V162.84L79.4999 163.1ZM78.8599 165.96H78.5399L78.3199 165.83V165.65L78.5399 165.52H78.8599L79.0899 165.65V165.83L78.8599 165.96ZM76.1199 167.07L76.8799 166.64H77.9499L78.6999 167.07V167.69L77.9499 168.13H76.8799L76.1199 167.69V167.07ZM75.4599 164.34L75.9499 164.05H76.6599L77.1599 164.34V164.75L76.6599 165.03H75.9499L75.4599 164.75V164.34ZM75.3599 159.73L75.6399 159.57H76.0399L76.3199 159.73V159.96L76.0399 160.12H75.6399L75.3599 159.96V159.73ZM75.2699 157.66L75.7699 157.37H76.4799L76.9799 157.66V158.07L76.4799 158.36H75.7699L75.2699 158.07V157.66ZM74.4699 164.09H74.1599L73.9399 163.96V163.78L74.1599 163.65H74.4699L74.6899 163.78V163.96L74.4699 164.09ZM73.1399 166.07L73.4399 165.89H73.8699L74.1699 166.07V166.32L73.8699 166.49H73.4399L73.1399 166.32V166.07ZM72.6499 161.11L73.4099 160.68H74.4799L75.2299 161.11V161.73L74.4799 162.16H73.4099L72.6499 161.73V161.11ZM72.3099 159.77L71.8099 159.49V159.08L72.3099 158.79H73.0099L73.5099 159.08V159.49L73.0099 159.77H72.3099ZM70.3399 163.92L70.6399 163.75H71.0699L71.3699 163.92V164.17L71.0699 164.35H70.6399L70.3399 164.17V163.92ZM69.9099 162.03L70.5299 161.67H71.3999L72.0199 162.03V162.53L71.3999 162.89H70.5299L69.9099 162.53V162.03Z" fill="#EFC58B"/>
<path d="M53 152.65V165.59L68.86 174.75H91.27L107.13 165.59V152.65L91.27 143.48H68.86L53 152.65ZM55.79 153.31L70.01 145.09H90.11L104.33 153.31V164.91L90.11 173.12H70.01L55.79 164.91V153.31Z" fill="white"/>
<path d="M68.86 191.56L82.93 187.06L91.27 191.56L88.16 196.56H71.96L68.86 191.56Z" fill="#A39C95"/>
<path d="M91.27 174.75H68.86V191.56H91.27V174.75Z" fill="#D1D1D1"/>
<path d="M91.27 191.56L107.12 182.41V165.59L91.27 174.75V191.56Z" fill="#A39C95"/>
<path d="M68.86 191.56L53 182.41V165.59L68.86 174.75V191.56Z" fill="#F4EFE9"/>
<path d="M102.42 191.28L107.86 188.14L116.3 181.96L111.41 182.9L102.42 191.28Z" fill="#736656"/>
<path d="M110.87 185.1L116.3 181.96V178.03L110.21 180.43L110.87 185.1Z" fill="#A39C95"/>
<path d="M108.33 180.38L110.87 181.17L116.3 178.03L101.88 169.71L96.45 172.85L97.41 174.16L108.33 180.38Z" fill="white"/>
<path d="M102.08 190.65L105.38 188.3L107.41 186.73L101.88 183.55L96.45 186.69L98.59 188.54L102.08 190.65Z" fill="white"/>
<path d="M96.45 187.83L102.42 191.28L110.87 185.1V181.17L96.45 172.85V174L109.88 181.74V184.09L101.98 189.87L96.45 186.69V187.83Z" fill="#F4EFE9"/>
</svg>
